<?xml version="1.0" encoding="utf-8"?>
<!-- Generator: Adobe Illustrator 22.0.0, SVG Export Plug-In . SVG Version: 6.00 Build 0)  -->
<svg version="1.0" id="Layer_1" xmlns="http://www.w3.org/2000/svg" xmlns:xlink="http://www.w3.org/1999/xlink" x="0px" y="0px"
	 viewBox="0 0 4229 3274" style="enable-background:new 0 0 4229 3274;" xml:space="preserve">
<style type="text/css">
	.st0{fill:#1B75BC;}
</style>
<g id="XMLID_687_">
	<path id="XMLID_728_" class="st0" d="M58,2754.8c0,122,98.9,221,221,221h3671c122,0,221-98.9,221-221V1282.3H58V2754.8z
		 M3163.6,2042.1c75.6,0,144.2,29.7,195.2,77.8c51-48.1,119.5-77.8,195.2-77.8c157.3,0,284.8,127.5,284.8,284.8
		c0,157.3-127.5,284.8-284.8,284.8c-75.6,0-144.2-29.7-195.2-77.8c-51,48.1-119.5,77.8-195.2,77.8c-157.3,0-284.8-127.5-284.8-284.8
		C2878.8,2169.6,3006.3,2042.1,3163.6,2042.1z M1443.1,2252.8H1580c40.9,0,74.1,33.2,74.1,74.1v0c0,40.9-33.2,74.1-74.1,74.1h-136.9
		c-40.9,0-74.1-33.2-74.1-74.1v0C1369,2286,1402.2,2252.8,1443.1,2252.8z M990.9,2252.8h136.9c40.9,0,74.1,33.2,74.1,74.1v0
		c0,40.9-33.2,74.1-74.1,74.1H990.9c-40.9,0-74.1-33.2-74.1-74.1v0C916.7,2286,949.9,2252.8,990.9,2252.8z M538.6,2252.8h136.9
		c40.9,0,74.1,33.2,74.1,74.1v0c0,40.9-33.2,74.1-74.1,74.1H538.6c-40.9,0-74.1-33.2-74.1-74.1v0
		C464.5,2286,497.7,2252.8,538.6,2252.8z"/>
	<path id="XMLID_740_" class="st0" d="M3950,231.7H279c-122,0-221,98.9-221,221v320.8h4113V452.7
		C4171,330.6,4072.1,231.7,3950,231.7z"/>
	<ellipse id="XMLID_748_" class="st0" cx="3358.8" cy="2326.9" rx="89.6" ry="207"/>
</g>
</svg>
