<?xml version="1.0" encoding="utf-8"?>
<svg viewBox="0 0 500 500" xmlns="http://www.w3.org/2000/svg">
  <g transform="matrix(0.25707, 0, 0, 0.229973, 53.159035, 281.684082)" style="">
    <path style="fill:#D0E8F9;" d="M255,417.56c-122.88,0-221.867-25.6-221.867-51.2v59.733c0,25.6,98.987,51.2,221.867,51.2 s221.867-25.6,221.867-51.2V366.36C476.867,391.96,377.88,417.56,255,417.56L255,417.56z"/>
    <path style="fill:#0096E6;" d="M255,485.827c-95.573,0-230.4-18.773-230.4-59.733V366.36h17.067 c0,14.507,82.773,42.667,213.333,42.667s213.333-28.16,213.333-42.667H485.4v59.733C485.4,467.053,350.573,485.827,255,485.827z M41.667,389.4v36.693c0,14.507,82.773,42.667,213.333,42.667s213.333-28.16,213.333-42.667V389.4 C431.64,412.44,342.04,426.093,255,426.093S78.36,412.44,41.667,389.4z"/>
    <path style="fill:#D0E8F9;" d="M75.8,395.373v59.733"/>
    <path style="fill:#0096E6;" d="M75.8,463.64c-5.12,0-8.533-3.413-8.533-8.533v-59.733c0-5.12,3.413-8.533,8.533-8.533 c5.12,0,8.533,3.413,8.533,8.533v59.733C84.333,460.227,80.92,463.64,75.8,463.64z"/>
    <path style="fill:#D0E8F9;" d="M434.2,455.107v-59.733"/>
    <path style="fill:#0096E6;" d="M434.2,463.64c-5.12,0-8.533-3.413-8.533-8.533v-59.733c0-5.12,3.413-8.533,8.533-8.533 c5.12,0,8.533,3.413,8.533,8.533v59.733C442.733,460.227,439.32,463.64,434.2,463.64z"/>
    <path style="fill:#D0E8F9;" d="M118.467,405.613v59.733"/>
    <path style="fill:#0096E6;" d="M118.467,473.88c-5.12,0-8.533-3.413-8.533-8.533v-59.733c0-5.12,3.413-8.533,8.533-8.533 s8.533,3.413,8.533,8.533v59.733C127,470.467,123.587,473.88,118.467,473.88z"/>
    <path style="fill:#D0E8F9;" d="M391.533,465.347v-59.733"/>
    <path style="fill:#0096E6;" d="M391.533,473.88c-5.12,0-8.533-3.413-8.533-8.533v-59.733c0-5.12,3.413-8.533,8.533-8.533 s8.533,3.413,8.533,8.533v59.733C400.067,470.467,396.653,473.88,391.533,473.88z"/>
    <path style="fill:#D0E8F9;" d="M161.133,412.44v59.733"/>
    <path style="fill:#0096E6;" d="M161.133,480.707c-5.12,0-8.533-3.413-8.533-8.533V412.44c0-5.12,3.413-8.533,8.533-8.533 c5.12,0,8.533,3.413,8.533,8.533v59.733C169.667,476.44,166.253,480.707,161.133,480.707z"/>
    <path style="fill:#D0E8F9;" d="M348.867,472.173V412.44"/>
    <path style="fill:#0096E6;" d="M348.867,480.707c-5.12,0-8.533-3.413-8.533-8.533V412.44c0-5.12,3.413-8.533,8.533-8.533 c5.12,0,8.533,3.413,8.533,8.533v59.733C357.4,476.44,353.987,480.707,348.867,480.707z"/>
    <path style="fill:#D0E8F9;" d="M203.8,415.853v59.733"/>
    <path style="fill:#0096E6;" d="M203.8,484.12c-5.12,0-8.533-3.413-8.533-8.533v-59.733c0-5.12,3.413-8.533,8.533-8.533 c5.12,0,8.533,3.413,8.533,8.533v59.733C212.333,480.707,208.92,484.12,203.8,484.12z"/>
    <path style="fill:#D0E8F9;" d="M306.2,475.587v-59.733"/>
    <path style="fill:#0096E6;" d="M306.2,484.12c-5.12,0-8.533-3.413-8.533-8.533v-59.733c0-5.12,3.413-8.533,8.533-8.533 s8.533,3.413,8.533,8.533v59.733C314.733,480.707,311.32,484.12,306.2,484.12z"/>
    <path style="fill:#D0E8F9;" d="M255,417.56v59.733"/>
    <path style="fill:#0096E6;" d="M255,485.827c-5.12,0-8.533-3.413-8.533-8.533V417.56c0-5.12,3.413-8.533,8.533-8.533 s8.533,3.413,8.533,8.533v59.733C263.533,482.413,260.12,485.827,255,485.827z"/>
    <path style="fill:#D0E8F9;" d="M229.4,323.693c-122.88,0-221.867-25.6-221.867-51.2v59.733c0,25.6,98.987,51.2,221.867,51.2 s221.867-25.6,221.867-51.2v-59.733C451.267,298.093,352.28,323.693,229.4,323.693L229.4,323.693z"/>
    <path style="fill:#0096E6;" d="M229.4,391.96C133.827,391.96-1,373.187-1,332.227v-59.733h17.067 C16.067,287,98.84,315.16,229.4,315.16S442.733,287,442.733,272.493H459.8v59.733C459.8,373.187,324.973,391.96,229.4,391.96z M16.067,295.533v36.693c0,14.507,82.773,42.667,213.333,42.667s213.333-28.16,213.333-42.667v-36.693 c-36.693,23.04-126.293,36.693-213.333,36.693S52.76,318.573,16.067,295.533z"/>
    <path style="fill:#D0E8F9;" d="M50.2,301.507v59.733"/>
    <path style="fill:#0096E6;" d="M50.2,369.773c-5.12,0-8.533-3.413-8.533-8.533v-59.733c0-5.12,3.413-8.533,8.533-8.533 s8.533,3.413,8.533,8.533v59.733C58.733,366.36,55.32,369.773,50.2,369.773z"/>
    <path style="fill:#D0E8F9;" d="M408.6,361.24v-59.733"/>
    <path style="fill:#0096E6;" d="M408.6,369.773c-5.12,0-8.533-3.413-8.533-8.533v-59.733c0-5.12,3.413-8.533,8.533-8.533 c5.12,0,8.533,3.413,8.533,8.533v59.733C417.133,366.36,413.72,369.773,408.6,369.773z"/>
    <path style="fill:#D0E8F9;" d="M92.867,311.747v59.733"/>
    <path style="fill:#0096E6;" d="M92.867,380.013c-5.12,0-8.533-3.413-8.533-8.533v-59.733c0-5.12,3.413-8.533,8.533-8.533 s8.533,3.413,8.533,8.533v59.733C101.4,376.6,97.987,380.013,92.867,380.013z"/>
    <path style="fill:#D0E8F9;" d="M365.933,371.48v-59.733"/>
    <path style="fill:#0096E6;" d="M365.933,380.013c-5.12,0-8.533-3.413-8.533-8.533v-59.733c0-5.12,3.413-8.533,8.533-8.533 s8.533,3.413,8.533,8.533v59.733C374.467,376.6,371.053,380.013,365.933,380.013z"/>
    <path style="fill:#D0E8F9;" d="M135.533,318.573v59.733"/>
    <path style="fill:#0096E6;" d="M135.533,386.84c-5.12,0-8.533-3.413-8.533-8.533v-59.733c0-5.12,3.413-8.533,8.533-8.533 s8.533,3.413,8.533,8.533v59.733C144.067,382.573,140.653,386.84,135.533,386.84z"/>
    <path style="fill:#D0E8F9;" d="M323.267,378.307v-59.733"/>
    <path style="fill:#0096E6;" d="M323.267,386.84c-5.12,0-8.533-3.413-8.533-8.533v-59.733c0-5.12,3.413-8.533,8.533-8.533 c5.12,0,8.533,3.413,8.533,8.533v59.733C331.8,382.573,328.387,386.84,323.267,386.84z"/>
    <path style="fill:#D0E8F9;" d="M178.2,321.987v59.733"/>
    <path style="fill:#0096E6;" d="M178.2,390.253c-5.12,0-8.533-3.413-8.533-8.533v-59.733c0-5.12,3.413-8.533,8.533-8.533 c5.12,0,8.533,3.413,8.533,8.533v59.733C186.733,386.84,183.32,390.253,178.2,390.253z"/>
    <path style="fill:#D0E8F9;" d="M280.6,381.72v-59.733"/>
    <path style="fill:#0096E6;" d="M280.6,390.253c-5.12,0-8.533-3.413-8.533-8.533v-59.733c0-5.12,3.413-8.533,8.533-8.533 s8.533,3.413,8.533,8.533v59.733C289.133,386.84,285.72,390.253,280.6,390.253z"/>
    <path style="fill:#D0E8F9;" d="M229.4,323.693v59.733"/>
    <path style="fill:#0096E6;" d="M229.4,391.96c-5.12,0-8.533-3.413-8.533-8.533v-59.733c0-5.12,3.413-8.533,8.533-8.533 c5.12,0,8.533,3.413,8.533,8.533v59.733C237.933,388.547,234.52,391.96,229.4,391.96z"/>
    <path style="fill:#D0E8F9;" d="M280.6,229.827c-122.88,0-221.867-25.6-221.867-51.2v59.733c0,25.6,98.987,51.2,221.867,51.2 s221.867-25.6,221.867-51.2v-59.733C502.467,204.227,403.48,229.827,280.6,229.827L280.6,229.827z"/>
    <path style="fill:#0096E6;" d="M280.6,298.093c-95.573,0-230.4-18.773-230.4-59.733v-59.733h17.067 c0,14.507,82.773,42.667,213.333,42.667s213.333-28.16,213.333-42.667H511v59.733C511,279.32,376.173,298.093,280.6,298.093z M67.267,201.667v36.693c0,14.507,82.773,42.667,213.333,42.667s213.333-28.16,213.333-42.667v-36.693 C457.24,224.707,367.64,238.36,280.6,238.36S103.96,224.707,67.267,201.667z"/>
    <path style="fill:#D0E8F9;" d="M101.4,207.64v59.733"/>
    <path style="fill:#0096E6;" d="M101.4,275.907c-5.12,0-8.533-3.413-8.533-8.533V207.64c0-5.12,3.413-8.533,8.533-8.533 c5.12,0,8.533,3.413,8.533,8.533v59.733C109.933,272.493,106.52,275.907,101.4,275.907z"/>
    <path style="fill:#D0E8F9;" d="M459.8,267.373V207.64"/>
    <path style="fill:#0096E6;" d="M459.8,275.907c-5.12,0-8.533-3.413-8.533-8.533V207.64c0-5.12,3.413-8.533,8.533-8.533 s8.533,3.413,8.533,8.533v59.733C468.333,272.493,464.92,275.907,459.8,275.907z"/>
    <path style="fill:#D0E8F9;" d="M144.067,217.88v59.733"/>
    <path style="fill:#0096E6;" d="M144.067,286.147c-5.12,0-8.533-3.413-8.533-8.533V217.88c0-5.12,3.413-8.533,8.533-8.533 c5.12,0,8.533,3.413,8.533,8.533v59.733C152.6,282.733,149.187,286.147,144.067,286.147z"/>
    <path style="fill:#D0E8F9;" d="M417.133,277.613V217.88"/>
    <path style="fill:#0096E6;" d="M417.133,286.147c-5.12,0-8.533-3.413-8.533-8.533V217.88c0-5.12,3.413-8.533,8.533-8.533 s8.533,3.413,8.533,8.533v59.733C425.667,282.733,422.253,286.147,417.133,286.147z"/>
    <path style="fill:#D0E8F9;" d="M186.733,224.707v59.733"/>
    <path style="fill:#0096E6;" d="M186.733,292.973c-5.12,0-8.533-3.413-8.533-8.533v-59.733c0-5.12,3.413-8.533,8.533-8.533 c5.12,0,8.533,3.413,8.533,8.533v59.733C195.267,288.707,191.853,292.973,186.733,292.973z"/>
    <path style="fill:#D0E8F9;" d="M374.467,284.44v-59.733"/>
    <path style="fill:#0096E6;" d="M374.467,292.973c-5.12,0-8.533-3.413-8.533-8.533v-59.733c0-5.12,3.413-8.533,8.533-8.533 c5.12,0,8.533,3.413,8.533,8.533v59.733C383,288.707,379.587,292.973,374.467,292.973z"/>
    <path style="fill:#D0E8F9;" d="M229.4,228.12v59.733"/>
    <path style="fill:#0096E6;" d="M229.4,296.387c-5.12,0-8.533-3.413-8.533-8.533V228.12c0-5.12,3.413-8.533,8.533-8.533 c5.12,0,8.533,3.413,8.533,8.533v59.733C237.933,292.973,234.52,296.387,229.4,296.387z"/>
    <path style="fill:#D0E8F9;" d="M331.8,287.853V228.12"/>
    <path style="fill:#0096E6;" d="M331.8,296.387c-5.12,0-8.533-3.413-8.533-8.533V228.12c0-5.12,3.413-8.533,8.533-8.533 s8.533,3.413,8.533,8.533v59.733C340.333,292.973,336.92,296.387,331.8,296.387z"/>
    <path style="fill:#D0E8F9;" d="M280.6,229.827v59.733"/>
    <path style="fill:#0096E6;" d="M280.6,298.093c-5.12,0-8.533-3.413-8.533-8.533v-59.733c0-5.12,3.413-8.533,8.533-8.533 s8.533,3.413,8.533,8.533v59.733C289.133,294.68,285.72,298.093,280.6,298.093z"/>
    <path style="fill:#FFFFFF;" d="M451.267,77.08c0,25.6-98.987,50.347-221.867,50.347S7.533,103.533,7.533,77.08 c0-25.6,98.987-43.52,221.867-43.52S451.267,51.48,451.267,77.08L451.267,77.08z"/>
    <path style="fill:#0096E6;" d="M229.4,135.96C117.613,135.96-1,115.48-1,77.08c0-50.347,206.507-52.053,230.4-52.053 s230.4,1.707,230.4,52.053C459.8,115.48,341.187,135.96,229.4,135.96z M229.4,42.093C87.747,42.093,16.067,64.28,16.067,77.08 c0,14.507,81.067,41.813,213.333,41.813S442.733,91.587,442.733,77.08C442.733,64.28,371.053,42.093,229.4,42.093z"/>
    <path style="fill:#D0E8F9;" d="M229.4,127.427c-122.88,0-221.867-25.6-221.867-51.2v59.733c0,25.6,98.987,51.2,221.867,51.2 s221.867-25.6,221.867-51.2V76.227C451.267,101.827,352.28,127.427,229.4,127.427L229.4,127.427z"/>
    <path style="fill:#0096E6;" d="M229.4,195.693C133.827,195.693-1,176.92-1,135.96V76.227h17.067 c0,14.507,82.773,42.667,213.333,42.667s213.333-28.16,213.333-42.667H459.8v59.733C459.8,176.92,324.973,195.693,229.4,195.693z M16.067,99.267v36.693c0,14.507,82.773,42.667,213.333,42.667s213.333-28.16,213.333-42.667V99.267 C406.04,122.307,316.44,135.96,229.4,135.96S52.76,122.307,16.067,99.267z"/>
    <path style="fill:#D0E8F9;" d="M50.2,105.24v59.733"/>
    <path style="fill:#0096E6;" d="M50.2,173.507c-5.12,0-8.533-3.413-8.533-8.533V105.24c0-5.12,3.413-8.533,8.533-8.533 s8.533,3.413,8.533,8.533v59.733C58.733,170.093,55.32,173.507,50.2,173.507z"/>
    <path style="fill:#D0E8F9;" d="M408.6,164.973V105.24"/>
    <path style="fill:#0096E6;" d="M408.6,173.507c-5.12,0-8.533-3.413-8.533-8.533V105.24c0-5.12,3.413-8.533,8.533-8.533 c5.12,0,8.533,3.413,8.533,8.533v59.733C417.133,170.093,413.72,173.507,408.6,173.507z"/>
    <path style="fill:#D0E8F9;" d="M92.867,115.48v59.733"/>
    <path style="fill:#0096E6;" d="M92.867,183.747c-5.12,0-8.533-3.413-8.533-8.533V115.48c0-5.12,3.413-8.533,8.533-8.533 s8.533,3.413,8.533,8.533v59.733C101.4,180.333,97.987,183.747,92.867,183.747z"/>
    <path style="fill:#D0E8F9;" d="M365.933,175.213V115.48"/>
    <path style="fill:#0096E6;" d="M365.933,183.747c-5.12,0-8.533-3.413-8.533-8.533V115.48c0-5.12,3.413-8.533,8.533-8.533 s8.533,3.413,8.533,8.533v59.733C374.467,180.333,371.053,183.747,365.933,183.747z"/>
    <path style="fill:#D0E8F9;" d="M135.533,122.307v59.733"/>
    <path style="fill:#0096E6;" d="M135.533,190.573c-5.12,0-8.533-3.413-8.533-8.533v-59.733c0-5.12,3.413-8.533,8.533-8.533 s8.533,3.413,8.533,8.533v59.733C144.067,186.307,140.653,190.573,135.533,190.573z"/>
    <path style="fill:#D0E8F9;" d="M323.267,182.04v-59.733"/>
    <path style="fill:#0096E6;" d="M323.267,190.573c-5.12,0-8.533-3.413-8.533-8.533v-59.733c0-5.12,3.413-8.533,8.533-8.533 c5.12,0,8.533,3.413,8.533,8.533v59.733C331.8,186.307,328.387,190.573,323.267,190.573z"/>
    <path style="fill:#D0E8F9;" d="M178.2,125.72v59.733"/>
    <path style="fill:#0096E6;" d="M178.2,193.987c-5.12,0-8.533-3.413-8.533-8.533V125.72c0-5.12,3.413-8.533,8.533-8.533 c5.12,0,8.533,3.413,8.533,8.533v59.733C186.733,190.573,183.32,193.987,178.2,193.987z"/>
    <path style="fill:#D0E8F9;" d="M280.6,185.453V125.72"/>
    <path style="fill:#0096E6;" d="M280.6,193.987c-5.12,0-8.533-3.413-8.533-8.533V125.72c0-5.12,3.413-8.533,8.533-8.533 s8.533,3.413,8.533,8.533v59.733C289.133,190.573,285.72,193.987,280.6,193.987z"/>
    <path style="fill:#D0E8F9;" d="M229.4,127.427v59.733"/>
    <path style="fill:#0096E6;" d="M229.4,195.693c-5.12,0-8.533-3.413-8.533-8.533v-59.733c0-5.12,3.413-8.533,8.533-8.533 c5.12,0,8.533,3.413,8.533,8.533v59.733C237.933,192.28,234.52,195.693,229.4,195.693z"/>
    <path style="fill:#FFFFFF;" d="M444.44,344.173c-23.893,21.333-110.933,39.253-215.04,39.253 c-81.067,0-151.893-11.093-191.147-26.453c-3.413,3.413-5.12,6.827-5.12,10.24c0,25.6,98.987,50.347,221.867,50.347 s221.867-23.893,221.867-50.347C476.867,358.68,464.92,350.147,444.44,344.173L444.44,344.173z"/>
    <path style="fill:#0096E6;" d="M255,426.093c-111.787,0-230.4-20.48-230.4-58.88c0-5.973,2.56-11.093,8.533-16.213l4.267-3.413 l4.267,1.707c40.96,15.36,112.64,25.6,187.733,25.6c108.373,0,188.587-19.627,209.92-37.547l3.413-3.413L447,335.64 c25.6,8.533,38.4,18.773,38.4,31.573C485.4,405.613,366.787,426.093,255,426.093z M41.667,367.213 c0,14.507,81.067,41.813,213.333,41.813s213.333-27.307,213.333-41.813c0-1.707-4.267-7.68-22.187-13.653 c-31.573,22.187-120.32,38.4-216.747,38.4C156.013,391.96,85.187,382.573,41.667,367.213z"/>
    <path style="fill:#FFFFFF;" d="M280.6,289.56c-112.64,0-205.653-21.333-220.16-45.227c-33.28,7.68-52.907,17.92-52.907,29.013 c0,25.6,98.987,50.347,221.867,50.347s221.867-23.893,221.867-50.347c0-0.853,0-2.56-0.853-3.413 C410.307,281.88,348.867,289.56,280.6,289.56L280.6,289.56z"/>
    <path style="fill:#0096E6;" d="M229.4,332.227c-111.787,0-230.4-20.48-230.4-58.88c0-16.213,19.627-28.16,59.733-37.547 l5.973-1.707l3.413,5.12c10.24,17.92,91.307,41.813,212.48,41.813c64,0,124.587-6.827,168.107-18.773l7.68-2.56l2.56,7.68 c0.853,2.56,0.853,4.267,0.853,5.973C459.8,311.747,341.187,332.227,229.4,332.227z M57.027,253.72 c-34.133,8.533-40.96,17.067-40.96,19.627c0,14.507,81.067,41.813,213.333,41.813c106.667,0,180.053-17.067,203.947-31.573 c-41.813,9.387-96.427,14.507-152.747,14.507C174.787,298.093,82.627,279.32,57.027,253.72z"/>
    <path style="fill:#FFFFFF;" d="M442.733,148.76c-26.453,21.333-111.787,38.4-213.333,38.4c-65.707,0-124.587-6.827-164.693-17.92 c-4.267,3.413-5.973,6.827-5.973,10.24c0,25.6,98.987,50.347,221.867,50.347s221.867-23.893,221.867-50.347 C502.467,167.533,479.427,156.44,442.733,148.76L442.733,148.76z"/>
    <path style="fill:#0096E6;" d="M280.6,238.36c-111.787,0-230.4-20.48-230.4-58.88c0-5.973,2.56-11.947,8.533-17.067L62.147,159 l4.267,0.853c42.667,11.093,101.547,17.92,162.987,17.92c104.96,0,185.173-18.773,208.213-35.84l3.413-2.56l4.267,0.853 c45.227,9.387,66.56,22.187,66.56,39.253C511,217.88,392.387,238.36,280.6,238.36z M67.267,178.627v0.853 c0,14.507,81.067,41.813,213.333,41.813s213.333-27.307,213.333-41.813c0-3.413-9.387-12.8-49.493-21.333 c-32.427,22.187-119.467,37.547-215.04,37.547C169.667,195.693,110.787,189.72,67.267,178.627z"/>
  </g>
  <g transform="matrix(1, 0, 0, 1, -140.878723, -33.186406)"/>
  <g transform="matrix(1, 0, 0, 1, -140.878723, -33.186406)"/>
  <g transform="matrix(1, 0, 0, 1, -140.878723, -33.186406)"/>
  <g transform="matrix(1, 0, 0, 1, -140.878723, -33.186406)"/>
  <g transform="matrix(1, 0, 0, 1, -140.878723, -33.186406)"/>
  <g transform="matrix(1, 0, 0, 1, -140.878723, -33.186406)"/>
  <g transform="matrix(1, 0, 0, 1, -140.878723, -33.186406)"/>
  <g transform="matrix(1, 0, 0, 1, -140.878723, -33.186406)"/>
  <g transform="matrix(1, 0, 0, 1, -140.878723, -33.186406)"/>
  <g transform="matrix(1, 0, 0, 1, -140.878723, -33.186406)"/>
  <g transform="matrix(1, 0, 0, 1, -140.878723, -33.186406)"/>
  <g transform="matrix(1, 0, 0, 1, -140.878723, -33.186406)"/>
  <g transform="matrix(1, 0, 0, 1, -140.878723, -33.186406)"/>
  <g transform="matrix(1, 0, 0, 1, -140.878723, -33.186406)"/>
  <g transform="matrix(1, 0, 0, 1, -140.878723, -33.186406)"/>
  <g transform="matrix(1, 0, 0, 1, 57.81195, -8.472835)"/>
  <g transform="matrix(1, 0, 0, 1, 57.81195, -8.472835)"/>
  <g transform="matrix(1, 0, 0, 1, 57.81195, -8.472835)"/>
  <g transform="matrix(1, 0, 0, 1, 57.81195, -8.472835)"/>
  <g transform="matrix(1, 0, 0, 1, 57.81195, -8.472835)"/>
  <g transform="matrix(1, 0, 0, 1, 57.81195, -8.472835)"/>
  <g transform="matrix(1, 0, 0, 1, 57.81195, -8.472835)"/>
  <g transform="matrix(1, 0, 0, 1, 57.81195, -8.472835)"/>
  <g transform="matrix(1, 0, 0, 1, 57.81195, -8.472835)"/>
  <g transform="matrix(1, 0, 0, 1, 57.81195, -8.472835)"/>
  <g transform="matrix(1, 0, 0, 1, 57.81195, -8.472835)"/>
  <g transform="matrix(1, 0, 0, 1, 57.81195, -8.472835)"/>
  <g transform="matrix(1, 0, 0, 1, 57.81195, -8.472835)"/>
  <g transform="matrix(1, 0, 0, 1, 57.81195, -8.472835)"/>
  <g transform="matrix(1, 0, 0, 1, 57.81195, -8.472835)"/>
  <g transform="matrix(0.25707, 0, 0, 0.229973, 273.360596, 282.128479)" style="">
    <path style="fill:#D0E8F9;" d="M255,417.56c-122.88,0-221.867-25.6-221.867-51.2v59.733c0,25.6,98.987,51.2,221.867,51.2 s221.867-25.6,221.867-51.2V366.36C476.867,391.96,377.88,417.56,255,417.56L255,417.56z"/>
    <path style="fill:#0096E6;" d="M255,485.827c-95.573,0-230.4-18.773-230.4-59.733V366.36h17.067 c0,14.507,82.773,42.667,213.333,42.667s213.333-28.16,213.333-42.667H485.4v59.733C485.4,467.053,350.573,485.827,255,485.827z M41.667,389.4v36.693c0,14.507,82.773,42.667,213.333,42.667s213.333-28.16,213.333-42.667V389.4 C431.64,412.44,342.04,426.093,255,426.093S78.36,412.44,41.667,389.4z"/>
    <path style="fill:#D0E8F9;" d="M75.8,395.373v59.733"/>
    <path style="fill:#0096E6;" d="M75.8,463.64c-5.12,0-8.533-3.413-8.533-8.533v-59.733c0-5.12,3.413-8.533,8.533-8.533 c5.12,0,8.533,3.413,8.533,8.533v59.733C84.333,460.227,80.92,463.64,75.8,463.64z"/>
    <path style="fill:#D0E8F9;" d="M434.2,455.107v-59.733"/>
    <path style="fill:#0096E6;" d="M434.2,463.64c-5.12,0-8.533-3.413-8.533-8.533v-59.733c0-5.12,3.413-8.533,8.533-8.533 c5.12,0,8.533,3.413,8.533,8.533v59.733C442.733,460.227,439.32,463.64,434.2,463.64z"/>
    <path style="fill:#D0E8F9;" d="M118.467,405.613v59.733"/>
    <path style="fill:#0096E6;" d="M118.467,473.88c-5.12,0-8.533-3.413-8.533-8.533v-59.733c0-5.12,3.413-8.533,8.533-8.533 s8.533,3.413,8.533,8.533v59.733C127,470.467,123.587,473.88,118.467,473.88z"/>
    <path style="fill:#D0E8F9;" d="M391.533,465.347v-59.733"/>
    <path style="fill:#0096E6;" d="M391.533,473.88c-5.12,0-8.533-3.413-8.533-8.533v-59.733c0-5.12,3.413-8.533,8.533-8.533 s8.533,3.413,8.533,8.533v59.733C400.067,470.467,396.653,473.88,391.533,473.88z"/>
    <path style="fill:#D0E8F9;" d="M161.133,412.44v59.733"/>
    <path style="fill:#0096E6;" d="M161.133,480.707c-5.12,0-8.533-3.413-8.533-8.533V412.44c0-5.12,3.413-8.533,8.533-8.533 c5.12,0,8.533,3.413,8.533,8.533v59.733C169.667,476.44,166.253,480.707,161.133,480.707z"/>
    <path style="fill:#D0E8F9;" d="M348.867,472.173V412.44"/>
    <path style="fill:#0096E6;" d="M348.867,480.707c-5.12,0-8.533-3.413-8.533-8.533V412.44c0-5.12,3.413-8.533,8.533-8.533 c5.12,0,8.533,3.413,8.533,8.533v59.733C357.4,476.44,353.987,480.707,348.867,480.707z"/>
    <path style="fill:#D0E8F9;" d="M203.8,415.853v59.733"/>
    <path style="fill:#0096E6;" d="M203.8,484.12c-5.12,0-8.533-3.413-8.533-8.533v-59.733c0-5.12,3.413-8.533,8.533-8.533 c5.12,0,8.533,3.413,8.533,8.533v59.733C212.333,480.707,208.92,484.12,203.8,484.12z"/>
    <path style="fill:#D0E8F9;" d="M306.2,475.587v-59.733"/>
    <path style="fill:#0096E6;" d="M306.2,484.12c-5.12,0-8.533-3.413-8.533-8.533v-59.733c0-5.12,3.413-8.533,8.533-8.533 s8.533,3.413,8.533,8.533v59.733C314.733,480.707,311.32,484.12,306.2,484.12z"/>
    <path style="fill:#D0E8F9;" d="M255,417.56v59.733"/>
    <path style="fill:#0096E6;" d="M255,485.827c-5.12,0-8.533-3.413-8.533-8.533V417.56c0-5.12,3.413-8.533,8.533-8.533 s8.533,3.413,8.533,8.533v59.733C263.533,482.413,260.12,485.827,255,485.827z"/>
    <path style="fill:#D0E8F9;" d="M229.4,323.693c-122.88,0-221.867-25.6-221.867-51.2v59.733c0,25.6,98.987,51.2,221.867,51.2 s221.867-25.6,221.867-51.2v-59.733C451.267,298.093,352.28,323.693,229.4,323.693L229.4,323.693z"/>
    <path style="fill:#0096E6;" d="M229.4,391.96C133.827,391.96-1,373.187-1,332.227v-59.733h17.067 C16.067,287,98.84,315.16,229.4,315.16S442.733,287,442.733,272.493H459.8v59.733C459.8,373.187,324.973,391.96,229.4,391.96z M16.067,295.533v36.693c0,14.507,82.773,42.667,213.333,42.667s213.333-28.16,213.333-42.667v-36.693 c-36.693,23.04-126.293,36.693-213.333,36.693S52.76,318.573,16.067,295.533z"/>
    <path style="fill:#D0E8F9;" d="M50.2,301.507v59.733"/>
    <path style="fill:#0096E6;" d="M50.2,369.773c-5.12,0-8.533-3.413-8.533-8.533v-59.733c0-5.12,3.413-8.533,8.533-8.533 s8.533,3.413,8.533,8.533v59.733C58.733,366.36,55.32,369.773,50.2,369.773z"/>
    <path style="fill:#D0E8F9;" d="M408.6,361.24v-59.733"/>
    <path style="fill:#0096E6;" d="M408.6,369.773c-5.12,0-8.533-3.413-8.533-8.533v-59.733c0-5.12,3.413-8.533,8.533-8.533 c5.12,0,8.533,3.413,8.533,8.533v59.733C417.133,366.36,413.72,369.773,408.6,369.773z"/>
    <path style="fill:#D0E8F9;" d="M92.867,311.747v59.733"/>
    <path style="fill:#0096E6;" d="M92.867,380.013c-5.12,0-8.533-3.413-8.533-8.533v-59.733c0-5.12,3.413-8.533,8.533-8.533 s8.533,3.413,8.533,8.533v59.733C101.4,376.6,97.987,380.013,92.867,380.013z"/>
    <path style="fill:#D0E8F9;" d="M365.933,371.48v-59.733"/>
    <path style="fill:#0096E6;" d="M365.933,380.013c-5.12,0-8.533-3.413-8.533-8.533v-59.733c0-5.12,3.413-8.533,8.533-8.533 s8.533,3.413,8.533,8.533v59.733C374.467,376.6,371.053,380.013,365.933,380.013z"/>
    <path style="fill:#D0E8F9;" d="M135.533,318.573v59.733"/>
    <path style="fill:#0096E6;" d="M135.533,386.84c-5.12,0-8.533-3.413-8.533-8.533v-59.733c0-5.12,3.413-8.533,8.533-8.533 s8.533,3.413,8.533,8.533v59.733C144.067,382.573,140.653,386.84,135.533,386.84z"/>
    <path style="fill:#D0E8F9;" d="M323.267,378.307v-59.733"/>
    <path style="fill:#0096E6;" d="M323.267,386.84c-5.12,0-8.533-3.413-8.533-8.533v-59.733c0-5.12,3.413-8.533,8.533-8.533 c5.12,0,8.533,3.413,8.533,8.533v59.733C331.8,382.573,328.387,386.84,323.267,386.84z"/>
    <path style="fill:#D0E8F9;" d="M178.2,321.987v59.733"/>
    <path style="fill:#0096E6;" d="M178.2,390.253c-5.12,0-8.533-3.413-8.533-8.533v-59.733c0-5.12,3.413-8.533,8.533-8.533 c5.12,0,8.533,3.413,8.533,8.533v59.733C186.733,386.84,183.32,390.253,178.2,390.253z"/>
    <path style="fill:#D0E8F9;" d="M280.6,381.72v-59.733"/>
    <path style="fill:#0096E6;" d="M280.6,390.253c-5.12,0-8.533-3.413-8.533-8.533v-59.733c0-5.12,3.413-8.533,8.533-8.533 s8.533,3.413,8.533,8.533v59.733C289.133,386.84,285.72,390.253,280.6,390.253z"/>
    <path style="fill:#D0E8F9;" d="M229.4,323.693v59.733"/>
    <path style="fill:#0096E6;" d="M229.4,391.96c-5.12,0-8.533-3.413-8.533-8.533v-59.733c0-5.12,3.413-8.533,8.533-8.533 c5.12,0,8.533,3.413,8.533,8.533v59.733C237.933,388.547,234.52,391.96,229.4,391.96z"/>
    <path style="fill:#D0E8F9;" d="M280.6,229.827c-122.88,0-221.867-25.6-221.867-51.2v59.733c0,25.6,98.987,51.2,221.867,51.2 s221.867-25.6,221.867-51.2v-59.733C502.467,204.227,403.48,229.827,280.6,229.827L280.6,229.827z"/>
    <path style="fill:#0096E6;" d="M280.6,298.093c-95.573,0-230.4-18.773-230.4-59.733v-59.733h17.067 c0,14.507,82.773,42.667,213.333,42.667s213.333-28.16,213.333-42.667H511v59.733C511,279.32,376.173,298.093,280.6,298.093z M67.267,201.667v36.693c0,14.507,82.773,42.667,213.333,42.667s213.333-28.16,213.333-42.667v-36.693 C457.24,224.707,367.64,238.36,280.6,238.36S103.96,224.707,67.267,201.667z"/>
    <path style="fill:#D0E8F9;" d="M101.4,207.64v59.733"/>
    <path style="fill:#0096E6;" d="M101.4,275.907c-5.12,0-8.533-3.413-8.533-8.533V207.64c0-5.12,3.413-8.533,8.533-8.533 c5.12,0,8.533,3.413,8.533,8.533v59.733C109.933,272.493,106.52,275.907,101.4,275.907z"/>
    <path style="fill:#D0E8F9;" d="M459.8,267.373V207.64"/>
    <path style="fill:#0096E6;" d="M459.8,275.907c-5.12,0-8.533-3.413-8.533-8.533V207.64c0-5.12,3.413-8.533,8.533-8.533 s8.533,3.413,8.533,8.533v59.733C468.333,272.493,464.92,275.907,459.8,275.907z"/>
    <path style="fill:#D0E8F9;" d="M144.067,217.88v59.733"/>
    <path style="fill:#0096E6;" d="M144.067,286.147c-5.12,0-8.533-3.413-8.533-8.533V217.88c0-5.12,3.413-8.533,8.533-8.533 c5.12,0,8.533,3.413,8.533,8.533v59.733C152.6,282.733,149.187,286.147,144.067,286.147z"/>
    <path style="fill:#D0E8F9;" d="M417.133,277.613V217.88"/>
    <path style="fill:#0096E6;" d="M417.133,286.147c-5.12,0-8.533-3.413-8.533-8.533V217.88c0-5.12,3.413-8.533,8.533-8.533 s8.533,3.413,8.533,8.533v59.733C425.667,282.733,422.253,286.147,417.133,286.147z"/>
    <path style="fill:#D0E8F9;" d="M186.733,224.707v59.733"/>
    <path style="fill:#0096E6;" d="M186.733,292.973c-5.12,0-8.533-3.413-8.533-8.533v-59.733c0-5.12,3.413-8.533,8.533-8.533 c5.12,0,8.533,3.413,8.533,8.533v59.733C195.267,288.707,191.853,292.973,186.733,292.973z"/>
    <path style="fill:#D0E8F9;" d="M374.467,284.44v-59.733"/>
    <path style="fill:#0096E6;" d="M374.467,292.973c-5.12,0-8.533-3.413-8.533-8.533v-59.733c0-5.12,3.413-8.533,8.533-8.533 c5.12,0,8.533,3.413,8.533,8.533v59.733C383,288.707,379.587,292.973,374.467,292.973z"/>
    <path style="fill:#D0E8F9;" d="M229.4,228.12v59.733"/>
    <path style="fill:#0096E6;" d="M229.4,296.387c-5.12,0-8.533-3.413-8.533-8.533V228.12c0-5.12,3.413-8.533,8.533-8.533 c5.12,0,8.533,3.413,8.533,8.533v59.733C237.933,292.973,234.52,296.387,229.4,296.387z"/>
    <path style="fill:#D0E8F9;" d="M331.8,287.853V228.12"/>
    <path style="fill:#0096E6;" d="M331.8,296.387c-5.12,0-8.533-3.413-8.533-8.533V228.12c0-5.12,3.413-8.533,8.533-8.533 s8.533,3.413,8.533,8.533v59.733C340.333,292.973,336.92,296.387,331.8,296.387z"/>
    <path style="fill:#D0E8F9;" d="M280.6,229.827v59.733"/>
    <path style="fill:#0096E6;" d="M280.6,298.093c-5.12,0-8.533-3.413-8.533-8.533v-59.733c0-5.12,3.413-8.533,8.533-8.533 s8.533,3.413,8.533,8.533v59.733C289.133,294.68,285.72,298.093,280.6,298.093z"/>
    <path style="fill:#FFFFFF;" d="M451.267,77.08c0,25.6-98.987,50.347-221.867,50.347S7.533,103.533,7.533,77.08 c0-25.6,98.987-43.52,221.867-43.52S451.267,51.48,451.267,77.08L451.267,77.08z"/>
    <path style="fill:#0096E6;" d="M229.4,135.96C117.613,135.96-1,115.48-1,77.08c0-50.347,206.507-52.053,230.4-52.053 s230.4,1.707,230.4,52.053C459.8,115.48,341.187,135.96,229.4,135.96z M229.4,42.093C87.747,42.093,16.067,64.28,16.067,77.08 c0,14.507,81.067,41.813,213.333,41.813S442.733,91.587,442.733,77.08C442.733,64.28,371.053,42.093,229.4,42.093z"/>
    <path style="fill:#D0E8F9;" d="M229.4,127.427c-122.88,0-221.867-25.6-221.867-51.2v59.733c0,25.6,98.987,51.2,221.867,51.2 s221.867-25.6,221.867-51.2V76.227C451.267,101.827,352.28,127.427,229.4,127.427L229.4,127.427z"/>
    <path style="fill:#0096E6;" d="M229.4,195.693C133.827,195.693-1,176.92-1,135.96V76.227h17.067 c0,14.507,82.773,42.667,213.333,42.667s213.333-28.16,213.333-42.667H459.8v59.733C459.8,176.92,324.973,195.693,229.4,195.693z M16.067,99.267v36.693c0,14.507,82.773,42.667,213.333,42.667s213.333-28.16,213.333-42.667V99.267 C406.04,122.307,316.44,135.96,229.4,135.96S52.76,122.307,16.067,99.267z"/>
    <path style="fill:#D0E8F9;" d="M50.2,105.24v59.733"/>
    <path style="fill:#0096E6;" d="M50.2,173.507c-5.12,0-8.533-3.413-8.533-8.533V105.24c0-5.12,3.413-8.533,8.533-8.533 s8.533,3.413,8.533,8.533v59.733C58.733,170.093,55.32,173.507,50.2,173.507z"/>
    <path style="fill:#D0E8F9;" d="M408.6,164.973V105.24"/>
    <path style="fill:#0096E6;" d="M408.6,173.507c-5.12,0-8.533-3.413-8.533-8.533V105.24c0-5.12,3.413-8.533,8.533-8.533 c5.12,0,8.533,3.413,8.533,8.533v59.733C417.133,170.093,413.72,173.507,408.6,173.507z"/>
    <path style="fill:#D0E8F9;" d="M92.867,115.48v59.733"/>
    <path style="fill:#0096E6;" d="M92.867,183.747c-5.12,0-8.533-3.413-8.533-8.533V115.48c0-5.12,3.413-8.533,8.533-8.533 s8.533,3.413,8.533,8.533v59.733C101.4,180.333,97.987,183.747,92.867,183.747z"/>
    <path style="fill:#D0E8F9;" d="M365.933,175.213V115.48"/>
    <path style="fill:#0096E6;" d="M365.933,183.747c-5.12,0-8.533-3.413-8.533-8.533V115.48c0-5.12,3.413-8.533,8.533-8.533 s8.533,3.413,8.533,8.533v59.733C374.467,180.333,371.053,183.747,365.933,183.747z"/>
    <path style="fill:#D0E8F9;" d="M135.533,122.307v59.733"/>
    <path style="fill:#0096E6;" d="M135.533,190.573c-5.12,0-8.533-3.413-8.533-8.533v-59.733c0-5.12,3.413-8.533,8.533-8.533 s8.533,3.413,8.533,8.533v59.733C144.067,186.307,140.653,190.573,135.533,190.573z"/>
    <path style="fill:#D0E8F9;" d="M323.267,182.04v-59.733"/>
    <path style="fill:#0096E6;" d="M323.267,190.573c-5.12,0-8.533-3.413-8.533-8.533v-59.733c0-5.12,3.413-8.533,8.533-8.533 c5.12,0,8.533,3.413,8.533,8.533v59.733C331.8,186.307,328.387,190.573,323.267,190.573z"/>
    <path style="fill:#D0E8F9;" d="M178.2,125.72v59.733"/>
    <path style="fill:#0096E6;" d="M178.2,193.987c-5.12,0-8.533-3.413-8.533-8.533V125.72c0-5.12,3.413-8.533,8.533-8.533 c5.12,0,8.533,3.413,8.533,8.533v59.733C186.733,190.573,183.32,193.987,178.2,193.987z"/>
    <path style="fill:#D0E8F9;" d="M280.6,185.453V125.72"/>
    <path style="fill:#0096E6;" d="M280.6,193.987c-5.12,0-8.533-3.413-8.533-8.533V125.72c0-5.12,3.413-8.533,8.533-8.533 s8.533,3.413,8.533,8.533v59.733C289.133,190.573,285.72,193.987,280.6,193.987z"/>
    <path style="fill:#D0E8F9;" d="M229.4,127.427v59.733"/>
    <path style="fill:#0096E6;" d="M229.4,195.693c-5.12,0-8.533-3.413-8.533-8.533v-59.733c0-5.12,3.413-8.533,8.533-8.533 c5.12,0,8.533,3.413,8.533,8.533v59.733C237.933,192.28,234.52,195.693,229.4,195.693z"/>
    <path style="fill:#FFFFFF;" d="M444.44,344.173c-23.893,21.333-110.933,39.253-215.04,39.253 c-81.067,0-151.893-11.093-191.147-26.453c-3.413,3.413-5.12,6.827-5.12,10.24c0,25.6,98.987,50.347,221.867,50.347 s221.867-23.893,221.867-50.347C476.867,358.68,464.92,350.147,444.44,344.173L444.44,344.173z"/>
    <path style="fill:#0096E6;" d="M255,426.093c-111.787,0-230.4-20.48-230.4-58.88c0-5.973,2.56-11.093,8.533-16.213l4.267-3.413 l4.267,1.707c40.96,15.36,112.64,25.6,187.733,25.6c108.373,0,188.587-19.627,209.92-37.547l3.413-3.413L447,335.64 c25.6,8.533,38.4,18.773,38.4,31.573C485.4,405.613,366.787,426.093,255,426.093z M41.667,367.213 c0,14.507,81.067,41.813,213.333,41.813s213.333-27.307,213.333-41.813c0-1.707-4.267-7.68-22.187-13.653 c-31.573,22.187-120.32,38.4-216.747,38.4C156.013,391.96,85.187,382.573,41.667,367.213z"/>
    <path style="fill:#FFFFFF;" d="M280.6,289.56c-112.64,0-205.653-21.333-220.16-45.227c-33.28,7.68-52.907,17.92-52.907,29.013 c0,25.6,98.987,50.347,221.867,50.347s221.867-23.893,221.867-50.347c0-0.853,0-2.56-0.853-3.413 C410.307,281.88,348.867,289.56,280.6,289.56L280.6,289.56z"/>
    <path style="fill:#0096E6;" d="M229.4,332.227c-111.787,0-230.4-20.48-230.4-58.88c0-16.213,19.627-28.16,59.733-37.547 l5.973-1.707l3.413,5.12c10.24,17.92,91.307,41.813,212.48,41.813c64,0,124.587-6.827,168.107-18.773l7.68-2.56l2.56,7.68 c0.853,2.56,0.853,4.267,0.853,5.973C459.8,311.747,341.187,332.227,229.4,332.227z M57.027,253.72 c-34.133,8.533-40.96,17.067-40.96,19.627c0,14.507,81.067,41.813,213.333,41.813c106.667,0,180.053-17.067,203.947-31.573 c-41.813,9.387-96.427,14.507-152.747,14.507C174.787,298.093,82.627,279.32,57.027,253.72z"/>
    <path style="fill:#FFFFFF;" d="M442.733,148.76c-26.453,21.333-111.787,38.4-213.333,38.4c-65.707,0-124.587-6.827-164.693-17.92 c-4.267,3.413-5.973,6.827-5.973,10.24c0,25.6,98.987,50.347,221.867,50.347s221.867-23.893,221.867-50.347 C502.467,167.533,479.427,156.44,442.733,148.76L442.733,148.76z"/>
    <path style="fill:#0096E6;" d="M280.6,238.36c-111.787,0-230.4-20.48-230.4-58.88c0-5.973,2.56-11.947,8.533-17.067L62.147,159 l4.267,0.853c42.667,11.093,101.547,17.92,162.987,17.92c104.96,0,185.173-18.773,208.213-35.84l3.413-2.56l4.267,0.853 c45.227,9.387,66.56,22.187,66.56,39.253C511,217.88,392.387,238.36,280.6,238.36z M67.267,178.627v0.853 c0,14.507,81.067,41.813,213.333,41.813s213.333-27.307,213.333-41.813c0-3.413-9.387-12.8-49.493-21.333 c-32.427,22.187-119.467,37.547-215.04,37.547C169.667,195.693,110.787,189.72,67.267,178.627z"/>
  </g>
  <g transform="matrix(0.214344, 0, 0, 0.286716, 57.092613, 129.828003)" style=""/>
  <g transform="matrix(0.214344, 0, 0, 0.286716, 57.092613, 129.828003)" style=""/>
  <g transform="matrix(0.214344, 0, 0, 0.286716, 57.092613, 129.828003)" style=""/>
  <g transform="matrix(0.214344, 0, 0, 0.286716, 57.092613, 129.828003)" style=""/>
  <g transform="matrix(0.214344, 0, 0, 0.286716, 57.092613, 129.828003)" style=""/>
  <g transform="matrix(0.214344, 0, 0, 0.286716, 57.092613, 129.828003)" style=""/>
  <g transform="matrix(0.214344, 0, 0, 0.286716, 57.092613, 129.828003)" style=""/>
  <g transform="matrix(0.214344, 0, 0, 0.286716, 57.092613, 129.828003)" style=""/>
  <g transform="matrix(0.214344, 0, 0, 0.286716, 57.092613, 129.828003)" style=""/>
  <g transform="matrix(0.214344, 0, 0, 0.286716, 57.092613, 129.828003)" style=""/>
  <g transform="matrix(0.214344, 0, 0, 0.286716, 57.092613, 129.828003)" style=""/>
  <g transform="matrix(0.214344, 0, 0, 0.286716, 57.092613, 129.828003)" style=""/>
  <g transform="matrix(0.214344, 0, 0, 0.286716, 57.092613, 129.828003)" style=""/>
  <g transform="matrix(0.214344, 0, 0, 0.286716, 57.092613, 129.828003)" style=""/>
  <g transform="matrix(0.214344, 0, 0, 0.286716, 57.092613, 129.828003)" style=""/>
  <g transform="matrix(0.25707, 0, 0, 0.229973, 152.861984, 283.745453)" style="">
    <path style="fill:#D0E8F9;" d="M255,417.56c-122.88,0-221.867-25.6-221.867-51.2v59.733c0,25.6,98.987,51.2,221.867,51.2 s221.867-25.6,221.867-51.2V366.36C476.867,391.96,377.88,417.56,255,417.56L255,417.56z"/>
    <path style="fill:#0096E6;" d="M255,485.827c-95.573,0-230.4-18.773-230.4-59.733V366.36h17.067 c0,14.507,82.773,42.667,213.333,42.667s213.333-28.16,213.333-42.667H485.4v59.733C485.4,467.053,350.573,485.827,255,485.827z M41.667,389.4v36.693c0,14.507,82.773,42.667,213.333,42.667s213.333-28.16,213.333-42.667V389.4 C431.64,412.44,342.04,426.093,255,426.093S78.36,412.44,41.667,389.4z"/>
    <path style="fill:#D0E8F9;" d="M75.8,395.373v59.733"/>
    <path style="fill:#0096E6;" d="M75.8,463.64c-5.12,0-8.533-3.413-8.533-8.533v-59.733c0-5.12,3.413-8.533,8.533-8.533 c5.12,0,8.533,3.413,8.533,8.533v59.733C84.333,460.227,80.92,463.64,75.8,463.64z"/>
    <path style="fill:#D0E8F9;" d="M434.2,455.107v-59.733"/>
    <path style="fill:#0096E6;" d="M434.2,463.64c-5.12,0-8.533-3.413-8.533-8.533v-59.733c0-5.12,3.413-8.533,8.533-8.533 c5.12,0,8.533,3.413,8.533,8.533v59.733C442.733,460.227,439.32,463.64,434.2,463.64z"/>
    <path style="fill:#D0E8F9;" d="M118.467,405.613v59.733"/>
    <path style="fill:#0096E6;" d="M118.467,473.88c-5.12,0-8.533-3.413-8.533-8.533v-59.733c0-5.12,3.413-8.533,8.533-8.533 s8.533,3.413,8.533,8.533v59.733C127,470.467,123.587,473.88,118.467,473.88z"/>
    <path style="fill:#D0E8F9;" d="M391.533,465.347v-59.733"/>
    <path style="fill:#0096E6;" d="M391.533,473.88c-5.12,0-8.533-3.413-8.533-8.533v-59.733c0-5.12,3.413-8.533,8.533-8.533 s8.533,3.413,8.533,8.533v59.733C400.067,470.467,396.653,473.88,391.533,473.88z"/>
    <path style="fill:#D0E8F9;" d="M161.133,412.44v59.733"/>
    <path style="fill:#0096E6;" d="M161.133,480.707c-5.12,0-8.533-3.413-8.533-8.533V412.44c0-5.12,3.413-8.533,8.533-8.533 c5.12,0,8.533,3.413,8.533,8.533v59.733C169.667,476.44,166.253,480.707,161.133,480.707z"/>
    <path style="fill:#D0E8F9;" d="M348.867,472.173V412.44"/>
    <path style="fill:#0096E6;" d="M348.867,480.707c-5.12,0-8.533-3.413-8.533-8.533V412.44c0-5.12,3.413-8.533,8.533-8.533 c5.12,0,8.533,3.413,8.533,8.533v59.733C357.4,476.44,353.987,480.707,348.867,480.707z"/>
    <path style="fill:#D0E8F9;" d="M203.8,415.853v59.733"/>
    <path style="fill:#0096E6;" d="M203.8,484.12c-5.12,0-8.533-3.413-8.533-8.533v-59.733c0-5.12,3.413-8.533,8.533-8.533 c5.12,0,8.533,3.413,8.533,8.533v59.733C212.333,480.707,208.92,484.12,203.8,484.12z"/>
    <path style="fill:#D0E8F9;" d="M306.2,475.587v-59.733"/>
    <path style="fill:#0096E6;" d="M306.2,484.12c-5.12,0-8.533-3.413-8.533-8.533v-59.733c0-5.12,3.413-8.533,8.533-8.533 s8.533,3.413,8.533,8.533v59.733C314.733,480.707,311.32,484.12,306.2,484.12z"/>
    <path style="fill:#D0E8F9;" d="M255,417.56v59.733"/>
    <path style="fill:#0096E6;" d="M255,485.827c-5.12,0-8.533-3.413-8.533-8.533V417.56c0-5.12,3.413-8.533,8.533-8.533 s8.533,3.413,8.533,8.533v59.733C263.533,482.413,260.12,485.827,255,485.827z"/>
    <path style="fill:#D0E8F9;" d="M229.4,323.693c-122.88,0-221.867-25.6-221.867-51.2v59.733c0,25.6,98.987,51.2,221.867,51.2 s221.867-25.6,221.867-51.2v-59.733C451.267,298.093,352.28,323.693,229.4,323.693L229.4,323.693z"/>
    <path style="fill:#0096E6;" d="M229.4,391.96C133.827,391.96-1,373.187-1,332.227v-59.733h17.067 C16.067,287,98.84,315.16,229.4,315.16S442.733,287,442.733,272.493H459.8v59.733C459.8,373.187,324.973,391.96,229.4,391.96z M16.067,295.533v36.693c0,14.507,82.773,42.667,213.333,42.667s213.333-28.16,213.333-42.667v-36.693 c-36.693,23.04-126.293,36.693-213.333,36.693S52.76,318.573,16.067,295.533z"/>
    <path style="fill:#D0E8F9;" d="M50.2,301.507v59.733"/>
    <path style="fill:#0096E6;" d="M50.2,369.773c-5.12,0-8.533-3.413-8.533-8.533v-59.733c0-5.12,3.413-8.533,8.533-8.533 s8.533,3.413,8.533,8.533v59.733C58.733,366.36,55.32,369.773,50.2,369.773z"/>
    <path style="fill:#D0E8F9;" d="M408.6,361.24v-59.733"/>
    <path style="fill:#0096E6;" d="M408.6,369.773c-5.12,0-8.533-3.413-8.533-8.533v-59.733c0-5.12,3.413-8.533,8.533-8.533 c5.12,0,8.533,3.413,8.533,8.533v59.733C417.133,366.36,413.72,369.773,408.6,369.773z"/>
    <path style="fill:#D0E8F9;" d="M92.867,311.747v59.733"/>
    <path style="fill:#0096E6;" d="M92.867,380.013c-5.12,0-8.533-3.413-8.533-8.533v-59.733c0-5.12,3.413-8.533,8.533-8.533 s8.533,3.413,8.533,8.533v59.733C101.4,376.6,97.987,380.013,92.867,380.013z"/>
    <path style="fill:#D0E8F9;" d="M365.933,371.48v-59.733"/>
    <path style="fill:#0096E6;" d="M365.933,380.013c-5.12,0-8.533-3.413-8.533-8.533v-59.733c0-5.12,3.413-8.533,8.533-8.533 s8.533,3.413,8.533,8.533v59.733C374.467,376.6,371.053,380.013,365.933,380.013z"/>
    <path style="fill:#D0E8F9;" d="M135.533,318.573v59.733"/>
    <path style="fill:#0096E6;" d="M135.533,386.84c-5.12,0-8.533-3.413-8.533-8.533v-59.733c0-5.12,3.413-8.533,8.533-8.533 s8.533,3.413,8.533,8.533v59.733C144.067,382.573,140.653,386.84,135.533,386.84z"/>
    <path style="fill:#D0E8F9;" d="M323.267,378.307v-59.733"/>
    <path style="fill:#0096E6;" d="M323.267,386.84c-5.12,0-8.533-3.413-8.533-8.533v-59.733c0-5.12,3.413-8.533,8.533-8.533 c5.12,0,8.533,3.413,8.533,8.533v59.733C331.8,382.573,328.387,386.84,323.267,386.84z"/>
    <path style="fill:#D0E8F9;" d="M178.2,321.987v59.733"/>
    <path style="fill:#0096E6;" d="M178.2,390.253c-5.12,0-8.533-3.413-8.533-8.533v-59.733c0-5.12,3.413-8.533,8.533-8.533 c5.12,0,8.533,3.413,8.533,8.533v59.733C186.733,386.84,183.32,390.253,178.2,390.253z"/>
    <path style="fill:#D0E8F9;" d="M280.6,381.72v-59.733"/>
    <path style="fill:#0096E6;" d="M280.6,390.253c-5.12,0-8.533-3.413-8.533-8.533v-59.733c0-5.12,3.413-8.533,8.533-8.533 s8.533,3.413,8.533,8.533v59.733C289.133,386.84,285.72,390.253,280.6,390.253z"/>
    <path style="fill:#D0E8F9;" d="M229.4,323.693v59.733"/>
    <path style="fill:#0096E6;" d="M229.4,391.96c-5.12,0-8.533-3.413-8.533-8.533v-59.733c0-5.12,3.413-8.533,8.533-8.533 c5.12,0,8.533,3.413,8.533,8.533v59.733C237.933,388.547,234.52,391.96,229.4,391.96z"/>
    <path style="fill:#D0E8F9;" d="M280.6,229.827c-122.88,0-221.867-25.6-221.867-51.2v59.733c0,25.6,98.987,51.2,221.867,51.2 s221.867-25.6,221.867-51.2v-59.733C502.467,204.227,403.48,229.827,280.6,229.827L280.6,229.827z"/>
    <path style="fill:#0096E6;" d="M280.6,298.093c-95.573,0-230.4-18.773-230.4-59.733v-59.733h17.067 c0,14.507,82.773,42.667,213.333,42.667s213.333-28.16,213.333-42.667H511v59.733C511,279.32,376.173,298.093,280.6,298.093z M67.267,201.667v36.693c0,14.507,82.773,42.667,213.333,42.667s213.333-28.16,213.333-42.667v-36.693 C457.24,224.707,367.64,238.36,280.6,238.36S103.96,224.707,67.267,201.667z"/>
    <path style="fill:#D0E8F9;" d="M101.4,207.64v59.733"/>
    <path style="fill:#0096E6;" d="M101.4,275.907c-5.12,0-8.533-3.413-8.533-8.533V207.64c0-5.12,3.413-8.533,8.533-8.533 c5.12,0,8.533,3.413,8.533,8.533v59.733C109.933,272.493,106.52,275.907,101.4,275.907z"/>
    <path style="fill:#D0E8F9;" d="M459.8,267.373V207.64"/>
    <path style="fill:#0096E6;" d="M459.8,275.907c-5.12,0-8.533-3.413-8.533-8.533V207.64c0-5.12,3.413-8.533,8.533-8.533 s8.533,3.413,8.533,8.533v59.733C468.333,272.493,464.92,275.907,459.8,275.907z"/>
    <path style="fill:#D0E8F9;" d="M144.067,217.88v59.733"/>
    <path style="fill:#0096E6;" d="M144.067,286.147c-5.12,0-8.533-3.413-8.533-8.533V217.88c0-5.12,3.413-8.533,8.533-8.533 c5.12,0,8.533,3.413,8.533,8.533v59.733C152.6,282.733,149.187,286.147,144.067,286.147z"/>
    <path style="fill:#D0E8F9;" d="M417.133,277.613V217.88"/>
    <path style="fill:#0096E6;" d="M417.133,286.147c-5.12,0-8.533-3.413-8.533-8.533V217.88c0-5.12,3.413-8.533,8.533-8.533 s8.533,3.413,8.533,8.533v59.733C425.667,282.733,422.253,286.147,417.133,286.147z"/>
    <path style="fill:#D0E8F9;" d="M186.733,224.707v59.733"/>
    <path style="fill:#0096E6;" d="M186.733,292.973c-5.12,0-8.533-3.413-8.533-8.533v-59.733c0-5.12,3.413-8.533,8.533-8.533 c5.12,0,8.533,3.413,8.533,8.533v59.733C195.267,288.707,191.853,292.973,186.733,292.973z"/>
    <path style="fill:#D0E8F9;" d="M374.467,284.44v-59.733"/>
    <path style="fill:#0096E6;" d="M374.467,292.973c-5.12,0-8.533-3.413-8.533-8.533v-59.733c0-5.12,3.413-8.533,8.533-8.533 c5.12,0,8.533,3.413,8.533,8.533v59.733C383,288.707,379.587,292.973,374.467,292.973z"/>
    <path style="fill:#D0E8F9;" d="M229.4,228.12v59.733"/>
    <path style="fill:#0096E6;" d="M229.4,296.387c-5.12,0-8.533-3.413-8.533-8.533V228.12c0-5.12,3.413-8.533,8.533-8.533 c5.12,0,8.533,3.413,8.533,8.533v59.733C237.933,292.973,234.52,296.387,229.4,296.387z"/>
    <path style="fill:#D0E8F9;" d="M331.8,287.853V228.12"/>
    <path style="fill:#0096E6;" d="M331.8,296.387c-5.12,0-8.533-3.413-8.533-8.533V228.12c0-5.12,3.413-8.533,8.533-8.533 s8.533,3.413,8.533,8.533v59.733C340.333,292.973,336.92,296.387,331.8,296.387z"/>
    <path style="fill:#D0E8F9;" d="M280.6,229.827v59.733"/>
    <path style="fill:#0096E6;" d="M280.6,298.093c-5.12,0-8.533-3.413-8.533-8.533v-59.733c0-5.12,3.413-8.533,8.533-8.533 s8.533,3.413,8.533,8.533v59.733C289.133,294.68,285.72,298.093,280.6,298.093z"/>
    <path style="fill:#FFFFFF;" d="M451.267,77.08c0,25.6-98.987,50.347-221.867,50.347S7.533,103.533,7.533,77.08 c0-25.6,98.987-43.52,221.867-43.52S451.267,51.48,451.267,77.08L451.267,77.08z"/>
    <path style="fill:#0096E6;" d="M229.4,135.96C117.613,135.96-1,115.48-1,77.08c0-50.347,206.507-52.053,230.4-52.053 s230.4,1.707,230.4,52.053C459.8,115.48,341.187,135.96,229.4,135.96z M229.4,42.093C87.747,42.093,16.067,64.28,16.067,77.08 c0,14.507,81.067,41.813,213.333,41.813S442.733,91.587,442.733,77.08C442.733,64.28,371.053,42.093,229.4,42.093z"/>
    <path style="fill:#D0E8F9;" d="M229.4,127.427c-122.88,0-221.867-25.6-221.867-51.2v59.733c0,25.6,98.987,51.2,221.867,51.2 s221.867-25.6,221.867-51.2V76.227C451.267,101.827,352.28,127.427,229.4,127.427L229.4,127.427z"/>
    <path style="fill:#0096E6;" d="M229.4,195.693C133.827,195.693-1,176.92-1,135.96V76.227h17.067 c0,14.507,82.773,42.667,213.333,42.667s213.333-28.16,213.333-42.667H459.8v59.733C459.8,176.92,324.973,195.693,229.4,195.693z M16.067,99.267v36.693c0,14.507,82.773,42.667,213.333,42.667s213.333-28.16,213.333-42.667V99.267 C406.04,122.307,316.44,135.96,229.4,135.96S52.76,122.307,16.067,99.267z"/>
    <path style="fill:#D0E8F9;" d="M50.2,105.24v59.733"/>
    <path style="fill:#0096E6;" d="M50.2,173.507c-5.12,0-8.533-3.413-8.533-8.533V105.24c0-5.12,3.413-8.533,8.533-8.533 s8.533,3.413,8.533,8.533v59.733C58.733,170.093,55.32,173.507,50.2,173.507z"/>
    <path style="fill:#D0E8F9;" d="M408.6,164.973V105.24"/>
    <path style="fill:#0096E6;" d="M408.6,173.507c-5.12,0-8.533-3.413-8.533-8.533V105.24c0-5.12,3.413-8.533,8.533-8.533 c5.12,0,8.533,3.413,8.533,8.533v59.733C417.133,170.093,413.72,173.507,408.6,173.507z"/>
    <path style="fill:#D0E8F9;" d="M92.867,115.48v59.733"/>
    <path style="fill:#0096E6;" d="M92.867,183.747c-5.12,0-8.533-3.413-8.533-8.533V115.48c0-5.12,3.413-8.533,8.533-8.533 s8.533,3.413,8.533,8.533v59.733C101.4,180.333,97.987,183.747,92.867,183.747z"/>
    <path style="fill:#D0E8F9;" d="M365.933,175.213V115.48"/>
    <path style="fill:#0096E6;" d="M365.933,183.747c-5.12,0-8.533-3.413-8.533-8.533V115.48c0-5.12,3.413-8.533,8.533-8.533 s8.533,3.413,8.533,8.533v59.733C374.467,180.333,371.053,183.747,365.933,183.747z"/>
    <path style="fill:#D0E8F9;" d="M135.533,122.307v59.733"/>
    <path style="fill:#0096E6;" d="M135.533,190.573c-5.12,0-8.533-3.413-8.533-8.533v-59.733c0-5.12,3.413-8.533,8.533-8.533 s8.533,3.413,8.533,8.533v59.733C144.067,186.307,140.653,190.573,135.533,190.573z"/>
    <path style="fill:#D0E8F9;" d="M323.267,182.04v-59.733"/>
    <path style="fill:#0096E6;" d="M323.267,190.573c-5.12,0-8.533-3.413-8.533-8.533v-59.733c0-5.12,3.413-8.533,8.533-8.533 c5.12,0,8.533,3.413,8.533,8.533v59.733C331.8,186.307,328.387,190.573,323.267,190.573z"/>
    <path style="fill:#D0E8F9;" d="M178.2,125.72v59.733"/>
    <path style="fill:#0096E6;" d="M178.2,193.987c-5.12,0-8.533-3.413-8.533-8.533V125.72c0-5.12,3.413-8.533,8.533-8.533 c5.12,0,8.533,3.413,8.533,8.533v59.733C186.733,190.573,183.32,193.987,178.2,193.987z"/>
    <path style="fill:#D0E8F9;" d="M280.6,185.453V125.72"/>
    <path style="fill:#0096E6;" d="M280.6,193.987c-5.12,0-8.533-3.413-8.533-8.533V125.72c0-5.12,3.413-8.533,8.533-8.533 s8.533,3.413,8.533,8.533v59.733C289.133,190.573,285.72,193.987,280.6,193.987z"/>
    <path style="fill:#D0E8F9;" d="M229.4,127.427v59.733"/>
    <path style="fill:#0096E6;" d="M229.4,195.693c-5.12,0-8.533-3.413-8.533-8.533v-59.733c0-5.12,3.413-8.533,8.533-8.533 c5.12,0,8.533,3.413,8.533,8.533v59.733C237.933,192.28,234.52,195.693,229.4,195.693z"/>
    <path style="fill:#FFFFFF;" d="M444.44,344.173c-23.893,21.333-110.933,39.253-215.04,39.253 c-81.067,0-151.893-11.093-191.147-26.453c-3.413,3.413-5.12,6.827-5.12,10.24c0,25.6,98.987,50.347,221.867,50.347 s221.867-23.893,221.867-50.347C476.867,358.68,464.92,350.147,444.44,344.173L444.44,344.173z"/>
    <path style="fill:#0096E6;" d="M255,426.093c-111.787,0-230.4-20.48-230.4-58.88c0-5.973,2.56-11.093,8.533-16.213l4.267-3.413 l4.267,1.707c40.96,15.36,112.64,25.6,187.733,25.6c108.373,0,188.587-19.627,209.92-37.547l3.413-3.413L447,335.64 c25.6,8.533,38.4,18.773,38.4,31.573C485.4,405.613,366.787,426.093,255,426.093z M41.667,367.213 c0,14.507,81.067,41.813,213.333,41.813s213.333-27.307,213.333-41.813c0-1.707-4.267-7.68-22.187-13.653 c-31.573,22.187-120.32,38.4-216.747,38.4C156.013,391.96,85.187,382.573,41.667,367.213z"/>
    <path style="fill:#FFFFFF;" d="M280.6,289.56c-112.64,0-205.653-21.333-220.16-45.227c-33.28,7.68-52.907,17.92-52.907,29.013 c0,25.6,98.987,50.347,221.867,50.347s221.867-23.893,221.867-50.347c0-0.853,0-2.56-0.853-3.413 C410.307,281.88,348.867,289.56,280.6,289.56L280.6,289.56z"/>
    <path style="fill:#0096E6;" d="M229.4,332.227c-111.787,0-230.4-20.48-230.4-58.88c0-16.213,19.627-28.16,59.733-37.547 l5.973-1.707l3.413,5.12c10.24,17.92,91.307,41.813,212.48,41.813c64,0,124.587-6.827,168.107-18.773l7.68-2.56l2.56,7.68 c0.853,2.56,0.853,4.267,0.853,5.973C459.8,311.747,341.187,332.227,229.4,332.227z M57.027,253.72 c-34.133,8.533-40.96,17.067-40.96,19.627c0,14.507,81.067,41.813,213.333,41.813c106.667,0,180.053-17.067,203.947-31.573 c-41.813,9.387-96.427,14.507-152.747,14.507C174.787,298.093,82.627,279.32,57.027,253.72z"/>
    <path style="fill:#FFFFFF;" d="M442.733,148.76c-26.453,21.333-111.787,38.4-213.333,38.4c-65.707,0-124.587-6.827-164.693-17.92 c-4.267,3.413-5.973,6.827-5.973,10.24c0,25.6,98.987,50.347,221.867,50.347s221.867-23.893,221.867-50.347 C502.467,167.533,479.427,156.44,442.733,148.76L442.733,148.76z"/>
    <path style="fill:#0096E6;" d="M280.6,238.36c-111.787,0-230.4-20.48-230.4-58.88c0-5.973,2.56-11.947,8.533-17.067L62.147,159 l4.267,0.853c42.667,11.093,101.547,17.92,162.987,17.92c104.96,0,185.173-18.773,208.213-35.84l3.413-2.56l4.267,0.853 c45.227,9.387,66.56,22.187,66.56,39.253C511,217.88,392.387,238.36,280.6,238.36z M67.267,178.627v0.853 c0,14.507,81.067,41.813,213.333,41.813s213.333-27.307,213.333-41.813c0-3.413-9.387-12.8-49.493-21.333 c-32.427,22.187-119.467,37.547-215.04,37.547C169.667,195.693,110.787,189.72,67.267,178.627z"/>
  </g>
  <g transform="matrix(0.25707, 0, 0, 0.229973, 158.052612, 201.561127)" style="">
    <path style="fill:#D0E8F9;" d="M255,417.56c-122.88,0-221.867-25.6-221.867-51.2v59.733c0,25.6,98.987,51.2,221.867,51.2 s221.867-25.6,221.867-51.2V366.36C476.867,391.96,377.88,417.56,255,417.56L255,417.56z"/>
    <path style="fill:#0096E6;" d="M255,485.827c-95.573,0-230.4-18.773-230.4-59.733V366.36h17.067 c0,14.507,82.773,42.667,213.333,42.667s213.333-28.16,213.333-42.667H485.4v59.733C485.4,467.053,350.573,485.827,255,485.827z M41.667,389.4v36.693c0,14.507,82.773,42.667,213.333,42.667s213.333-28.16,213.333-42.667V389.4 C431.64,412.44,342.04,426.093,255,426.093S78.36,412.44,41.667,389.4z"/>
    <path style="fill:#D0E8F9;" d="M75.8,395.373v59.733"/>
    <path style="fill:#0096E6;" d="M75.8,463.64c-5.12,0-8.533-3.413-8.533-8.533v-59.733c0-5.12,3.413-8.533,8.533-8.533 c5.12,0,8.533,3.413,8.533,8.533v59.733C84.333,460.227,80.92,463.64,75.8,463.64z"/>
    <path style="fill:#D0E8F9;" d="M434.2,455.107v-59.733"/>
    <path style="fill:#0096E6;" d="M434.2,463.64c-5.12,0-8.533-3.413-8.533-8.533v-59.733c0-5.12,3.413-8.533,8.533-8.533 c5.12,0,8.533,3.413,8.533,8.533v59.733C442.733,460.227,439.32,463.64,434.2,463.64z"/>
    <path style="fill:#D0E8F9;" d="M118.467,405.613v59.733"/>
    <path style="fill:#0096E6;" d="M118.467,473.88c-5.12,0-8.533-3.413-8.533-8.533v-59.733c0-5.12,3.413-8.533,8.533-8.533 s8.533,3.413,8.533,8.533v59.733C127,470.467,123.587,473.88,118.467,473.88z"/>
    <path style="fill:#D0E8F9;" d="M391.533,465.347v-59.733"/>
    <path style="fill:#0096E6;" d="M391.533,473.88c-5.12,0-8.533-3.413-8.533-8.533v-59.733c0-5.12,3.413-8.533,8.533-8.533 s8.533,3.413,8.533,8.533v59.733C400.067,470.467,396.653,473.88,391.533,473.88z"/>
    <path style="fill:#D0E8F9;" d="M161.133,412.44v59.733"/>
    <path style="fill:#0096E6;" d="M161.133,480.707c-5.12,0-8.533-3.413-8.533-8.533V412.44c0-5.12,3.413-8.533,8.533-8.533 c5.12,0,8.533,3.413,8.533,8.533v59.733C169.667,476.44,166.253,480.707,161.133,480.707z"/>
    <path style="fill:#D0E8F9;" d="M348.867,472.173V412.44"/>
    <path style="fill:#0096E6;" d="M348.867,480.707c-5.12,0-8.533-3.413-8.533-8.533V412.44c0-5.12,3.413-8.533,8.533-8.533 c5.12,0,8.533,3.413,8.533,8.533v59.733C357.4,476.44,353.987,480.707,348.867,480.707z"/>
    <path style="fill:#D0E8F9;" d="M203.8,415.853v59.733"/>
    <path style="fill:#0096E6;" d="M203.8,484.12c-5.12,0-8.533-3.413-8.533-8.533v-59.733c0-5.12,3.413-8.533,8.533-8.533 c5.12,0,8.533,3.413,8.533,8.533v59.733C212.333,480.707,208.92,484.12,203.8,484.12z"/>
    <path style="fill:#D0E8F9;" d="M306.2,475.587v-59.733"/>
    <path style="fill:#0096E6;" d="M306.2,484.12c-5.12,0-8.533-3.413-8.533-8.533v-59.733c0-5.12,3.413-8.533,8.533-8.533 s8.533,3.413,8.533,8.533v59.733C314.733,480.707,311.32,484.12,306.2,484.12z"/>
    <path style="fill:#D0E8F9;" d="M255,417.56v59.733"/>
    <path style="fill:#0096E6;" d="M255,485.827c-5.12,0-8.533-3.413-8.533-8.533V417.56c0-5.12,3.413-8.533,8.533-8.533 s8.533,3.413,8.533,8.533v59.733C263.533,482.413,260.12,485.827,255,485.827z"/>
    <path style="fill:#D0E8F9;" d="M229.4,323.693c-122.88,0-221.867-25.6-221.867-51.2v59.733c0,25.6,98.987,51.2,221.867,51.2 s221.867-25.6,221.867-51.2v-59.733C451.267,298.093,352.28,323.693,229.4,323.693L229.4,323.693z"/>
    <path style="fill:#0096E6;" d="M229.4,391.96C133.827,391.96-1,373.187-1,332.227v-59.733h17.067 C16.067,287,98.84,315.16,229.4,315.16S442.733,287,442.733,272.493H459.8v59.733C459.8,373.187,324.973,391.96,229.4,391.96z M16.067,295.533v36.693c0,14.507,82.773,42.667,213.333,42.667s213.333-28.16,213.333-42.667v-36.693 c-36.693,23.04-126.293,36.693-213.333,36.693S52.76,318.573,16.067,295.533z"/>
    <path style="fill:#D0E8F9;" d="M50.2,301.507v59.733"/>
    <path style="fill:#0096E6;" d="M50.2,369.773c-5.12,0-8.533-3.413-8.533-8.533v-59.733c0-5.12,3.413-8.533,8.533-8.533 s8.533,3.413,8.533,8.533v59.733C58.733,366.36,55.32,369.773,50.2,369.773z"/>
    <path style="fill:#D0E8F9;" d="M408.6,361.24v-59.733"/>
    <path style="fill:#0096E6;" d="M408.6,369.773c-5.12,0-8.533-3.413-8.533-8.533v-59.733c0-5.12,3.413-8.533,8.533-8.533 c5.12,0,8.533,3.413,8.533,8.533v59.733C417.133,366.36,413.72,369.773,408.6,369.773z"/>
    <path style="fill:#D0E8F9;" d="M92.867,311.747v59.733"/>
    <path style="fill:#0096E6;" d="M92.867,380.013c-5.12,0-8.533-3.413-8.533-8.533v-59.733c0-5.12,3.413-8.533,8.533-8.533 s8.533,3.413,8.533,8.533v59.733C101.4,376.6,97.987,380.013,92.867,380.013z"/>
    <path style="fill:#D0E8F9;" d="M365.933,371.48v-59.733"/>
    <path style="fill:#0096E6;" d="M365.933,380.013c-5.12,0-8.533-3.413-8.533-8.533v-59.733c0-5.12,3.413-8.533,8.533-8.533 s8.533,3.413,8.533,8.533v59.733C374.467,376.6,371.053,380.013,365.933,380.013z"/>
    <path style="fill:#D0E8F9;" d="M135.533,318.573v59.733"/>
    <path style="fill:#0096E6;" d="M135.533,386.84c-5.12,0-8.533-3.413-8.533-8.533v-59.733c0-5.12,3.413-8.533,8.533-8.533 s8.533,3.413,8.533,8.533v59.733C144.067,382.573,140.653,386.84,135.533,386.84z"/>
    <path style="fill:#D0E8F9;" d="M323.267,378.307v-59.733"/>
    <path style="fill:#0096E6;" d="M323.267,386.84c-5.12,0-8.533-3.413-8.533-8.533v-59.733c0-5.12,3.413-8.533,8.533-8.533 c5.12,0,8.533,3.413,8.533,8.533v59.733C331.8,382.573,328.387,386.84,323.267,386.84z"/>
    <path style="fill:#D0E8F9;" d="M178.2,321.987v59.733"/>
    <path style="fill:#0096E6;" d="M178.2,390.253c-5.12,0-8.533-3.413-8.533-8.533v-59.733c0-5.12,3.413-8.533,8.533-8.533 c5.12,0,8.533,3.413,8.533,8.533v59.733C186.733,386.84,183.32,390.253,178.2,390.253z"/>
    <path style="fill:#D0E8F9;" d="M280.6,381.72v-59.733"/>
    <path style="fill:#0096E6;" d="M280.6,390.253c-5.12,0-8.533-3.413-8.533-8.533v-59.733c0-5.12,3.413-8.533,8.533-8.533 s8.533,3.413,8.533,8.533v59.733C289.133,386.84,285.72,390.253,280.6,390.253z"/>
    <path style="fill:#D0E8F9;" d="M229.4,323.693v59.733"/>
    <path style="fill:#0096E6;" d="M229.4,391.96c-5.12,0-8.533-3.413-8.533-8.533v-59.733c0-5.12,3.413-8.533,8.533-8.533 c5.12,0,8.533,3.413,8.533,8.533v59.733C237.933,388.547,234.52,391.96,229.4,391.96z"/>
    <path style="fill:#D0E8F9;" d="M280.6,229.827c-122.88,0-221.867-25.6-221.867-51.2v59.733c0,25.6,98.987,51.2,221.867,51.2 s221.867-25.6,221.867-51.2v-59.733C502.467,204.227,403.48,229.827,280.6,229.827L280.6,229.827z"/>
    <path style="fill:#0096E6;" d="M280.6,298.093c-95.573,0-230.4-18.773-230.4-59.733v-59.733h17.067 c0,14.507,82.773,42.667,213.333,42.667s213.333-28.16,213.333-42.667H511v59.733C511,279.32,376.173,298.093,280.6,298.093z M67.267,201.667v36.693c0,14.507,82.773,42.667,213.333,42.667s213.333-28.16,213.333-42.667v-36.693 C457.24,224.707,367.64,238.36,280.6,238.36S103.96,224.707,67.267,201.667z"/>
    <path style="fill:#D0E8F9;" d="M101.4,207.64v59.733"/>
    <path style="fill:#0096E6;" d="M101.4,275.907c-5.12,0-8.533-3.413-8.533-8.533V207.64c0-5.12,3.413-8.533,8.533-8.533 c5.12,0,8.533,3.413,8.533,8.533v59.733C109.933,272.493,106.52,275.907,101.4,275.907z"/>
    <path style="fill:#D0E8F9;" d="M459.8,267.373V207.64"/>
    <path style="fill:#0096E6;" d="M459.8,275.907c-5.12,0-8.533-3.413-8.533-8.533V207.64c0-5.12,3.413-8.533,8.533-8.533 s8.533,3.413,8.533,8.533v59.733C468.333,272.493,464.92,275.907,459.8,275.907z"/>
    <path style="fill:#D0E8F9;" d="M144.067,217.88v59.733"/>
    <path style="fill:#0096E6;" d="M144.067,286.147c-5.12,0-8.533-3.413-8.533-8.533V217.88c0-5.12,3.413-8.533,8.533-8.533 c5.12,0,8.533,3.413,8.533,8.533v59.733C152.6,282.733,149.187,286.147,144.067,286.147z"/>
    <path style="fill:#D0E8F9;" d="M417.133,277.613V217.88"/>
    <path style="fill:#0096E6;" d="M417.133,286.147c-5.12,0-8.533-3.413-8.533-8.533V217.88c0-5.12,3.413-8.533,8.533-8.533 s8.533,3.413,8.533,8.533v59.733C425.667,282.733,422.253,286.147,417.133,286.147z"/>
    <path style="fill:#D0E8F9;" d="M186.733,224.707v59.733"/>
    <path style="fill:#0096E6;" d="M186.733,292.973c-5.12,0-8.533-3.413-8.533-8.533v-59.733c0-5.12,3.413-8.533,8.533-8.533 c5.12,0,8.533,3.413,8.533,8.533v59.733C195.267,288.707,191.853,292.973,186.733,292.973z"/>
    <path style="fill:#D0E8F9;" d="M374.467,284.44v-59.733"/>
    <path style="fill:#0096E6;" d="M374.467,292.973c-5.12,0-8.533-3.413-8.533-8.533v-59.733c0-5.12,3.413-8.533,8.533-8.533 c5.12,0,8.533,3.413,8.533,8.533v59.733C383,288.707,379.587,292.973,374.467,292.973z"/>
    <path style="fill:#D0E8F9;" d="M229.4,228.12v59.733"/>
    <path style="fill:#0096E6;" d="M229.4,296.387c-5.12,0-8.533-3.413-8.533-8.533V228.12c0-5.12,3.413-8.533,8.533-8.533 c5.12,0,8.533,3.413,8.533,8.533v59.733C237.933,292.973,234.52,296.387,229.4,296.387z"/>
    <path style="fill:#D0E8F9;" d="M331.8,287.853V228.12"/>
    <path style="fill:#0096E6;" d="M331.8,296.387c-5.12,0-8.533-3.413-8.533-8.533V228.12c0-5.12,3.413-8.533,8.533-8.533 s8.533,3.413,8.533,8.533v59.733C340.333,292.973,336.92,296.387,331.8,296.387z"/>
    <path style="fill:#D0E8F9;" d="M280.6,229.827v59.733"/>
    <path style="fill:#0096E6;" d="M280.6,298.093c-5.12,0-8.533-3.413-8.533-8.533v-59.733c0-5.12,3.413-8.533,8.533-8.533 s8.533,3.413,8.533,8.533v59.733C289.133,294.68,285.72,298.093,280.6,298.093z"/>
    <path style="fill:#FFFFFF;" d="M451.267,77.08c0,25.6-98.987,50.347-221.867,50.347S7.533,103.533,7.533,77.08 c0-25.6,98.987-43.52,221.867-43.52S451.267,51.48,451.267,77.08L451.267,77.08z"/>
    <path style="fill:#0096E6;" d="M229.4,135.96C117.613,135.96-1,115.48-1,77.08c0-50.347,206.507-52.053,230.4-52.053 s230.4,1.707,230.4,52.053C459.8,115.48,341.187,135.96,229.4,135.96z M229.4,42.093C87.747,42.093,16.067,64.28,16.067,77.08 c0,14.507,81.067,41.813,213.333,41.813S442.733,91.587,442.733,77.08C442.733,64.28,371.053,42.093,229.4,42.093z"/>
    <path style="fill:#D0E8F9;" d="M229.4,127.427c-122.88,0-221.867-25.6-221.867-51.2v59.733c0,25.6,98.987,51.2,221.867,51.2 s221.867-25.6,221.867-51.2V76.227C451.267,101.827,352.28,127.427,229.4,127.427L229.4,127.427z"/>
    <path style="fill:#0096E6;" d="M229.4,195.693C133.827,195.693-1,176.92-1,135.96V76.227h17.067 c0,14.507,82.773,42.667,213.333,42.667s213.333-28.16,213.333-42.667H459.8v59.733C459.8,176.92,324.973,195.693,229.4,195.693z M16.067,99.267v36.693c0,14.507,82.773,42.667,213.333,42.667s213.333-28.16,213.333-42.667V99.267 C406.04,122.307,316.44,135.96,229.4,135.96S52.76,122.307,16.067,99.267z"/>
    <path style="fill:#D0E8F9;" d="M50.2,105.24v59.733"/>
    <path style="fill:#0096E6;" d="M50.2,173.507c-5.12,0-8.533-3.413-8.533-8.533V105.24c0-5.12,3.413-8.533,8.533-8.533 s8.533,3.413,8.533,8.533v59.733C58.733,170.093,55.32,173.507,50.2,173.507z"/>
    <path style="fill:#D0E8F9;" d="M408.6,164.973V105.24"/>
    <path style="fill:#0096E6;" d="M408.6,173.507c-5.12,0-8.533-3.413-8.533-8.533V105.24c0-5.12,3.413-8.533,8.533-8.533 c5.12,0,8.533,3.413,8.533,8.533v59.733C417.133,170.093,413.72,173.507,408.6,173.507z"/>
    <path style="fill:#D0E8F9;" d="M92.867,115.48v59.733"/>
    <path style="fill:#0096E6;" d="M92.867,183.747c-5.12,0-8.533-3.413-8.533-8.533V115.48c0-5.12,3.413-8.533,8.533-8.533 s8.533,3.413,8.533,8.533v59.733C101.4,180.333,97.987,183.747,92.867,183.747z"/>
    <path style="fill:#D0E8F9;" d="M365.933,175.213V115.48"/>
    <path style="fill:#0096E6;" d="M365.933,183.747c-5.12,0-8.533-3.413-8.533-8.533V115.48c0-5.12,3.413-8.533,8.533-8.533 s8.533,3.413,8.533,8.533v59.733C374.467,180.333,371.053,183.747,365.933,183.747z"/>
    <path style="fill:#D0E8F9;" d="M135.533,122.307v59.733"/>
    <path style="fill:#0096E6;" d="M135.533,190.573c-5.12,0-8.533-3.413-8.533-8.533v-59.733c0-5.12,3.413-8.533,8.533-8.533 s8.533,3.413,8.533,8.533v59.733C144.067,186.307,140.653,190.573,135.533,190.573z"/>
    <path style="fill:#D0E8F9;" d="M323.267,182.04v-59.733"/>
    <path style="fill:#0096E6;" d="M323.267,190.573c-5.12,0-8.533-3.413-8.533-8.533v-59.733c0-5.12,3.413-8.533,8.533-8.533 c5.12,0,8.533,3.413,8.533,8.533v59.733C331.8,186.307,328.387,190.573,323.267,190.573z"/>
    <path style="fill:#D0E8F9;" d="M178.2,125.72v59.733"/>
    <path style="fill:#0096E6;" d="M178.2,193.987c-5.12,0-8.533-3.413-8.533-8.533V125.72c0-5.12,3.413-8.533,8.533-8.533 c5.12,0,8.533,3.413,8.533,8.533v59.733C186.733,190.573,183.32,193.987,178.2,193.987z"/>
    <path style="fill:#D0E8F9;" d="M280.6,185.453V125.72"/>
    <path style="fill:#0096E6;" d="M280.6,193.987c-5.12,0-8.533-3.413-8.533-8.533V125.72c0-5.12,3.413-8.533,8.533-8.533 s8.533,3.413,8.533,8.533v59.733C289.133,190.573,285.72,193.987,280.6,193.987z"/>
    <path style="fill:#D0E8F9;" d="M229.4,127.427v59.733"/>
    <path style="fill:#0096E6;" d="M229.4,195.693c-5.12,0-8.533-3.413-8.533-8.533v-59.733c0-5.12,3.413-8.533,8.533-8.533 c5.12,0,8.533,3.413,8.533,8.533v59.733C237.933,192.28,234.52,195.693,229.4,195.693z"/>
    <path style="fill:#FFFFFF;" d="M444.44,344.173c-23.893,21.333-110.933,39.253-215.04,39.253 c-81.067,0-151.893-11.093-191.147-26.453c-3.413,3.413-5.12,6.827-5.12,10.24c0,25.6,98.987,50.347,221.867,50.347 s221.867-23.893,221.867-50.347C476.867,358.68,464.92,350.147,444.44,344.173L444.44,344.173z"/>
    <path style="fill:#0096E6;" d="M255,426.093c-111.787,0-230.4-20.48-230.4-58.88c0-5.973,2.56-11.093,8.533-16.213l4.267-3.413 l4.267,1.707c40.96,15.36,112.64,25.6,187.733,25.6c108.373,0,188.587-19.627,209.92-37.547l3.413-3.413L447,335.64 c25.6,8.533,38.4,18.773,38.4,31.573C485.4,405.613,366.787,426.093,255,426.093z M41.667,367.213 c0,14.507,81.067,41.813,213.333,41.813s213.333-27.307,213.333-41.813c0-1.707-4.267-7.68-22.187-13.653 c-31.573,22.187-120.32,38.4-216.747,38.4C156.013,391.96,85.187,382.573,41.667,367.213z"/>
    <path style="fill:#FFFFFF;" d="M280.6,289.56c-112.64,0-205.653-21.333-220.16-45.227c-33.28,7.68-52.907,17.92-52.907,29.013 c0,25.6,98.987,50.347,221.867,50.347s221.867-23.893,221.867-50.347c0-0.853,0-2.56-0.853-3.413 C410.307,281.88,348.867,289.56,280.6,289.56L280.6,289.56z"/>
    <path style="fill:#0096E6;" d="M229.4,332.227c-111.787,0-230.4-20.48-230.4-58.88c0-16.213,19.627-28.16,59.733-37.547 l5.973-1.707l3.413,5.12c10.24,17.92,91.307,41.813,212.48,41.813c64,0,124.587-6.827,168.107-18.773l7.68-2.56l2.56,7.68 c0.853,2.56,0.853,4.267,0.853,5.973C459.8,311.747,341.187,332.227,229.4,332.227z M57.027,253.72 c-34.133,8.533-40.96,17.067-40.96,19.627c0,14.507,81.067,41.813,213.333,41.813c106.667,0,180.053-17.067,203.947-31.573 c-41.813,9.387-96.427,14.507-152.747,14.507C174.787,298.093,82.627,279.32,57.027,253.72z"/>
    <path style="fill:#FFFFFF;" d="M442.733,148.76c-26.453,21.333-111.787,38.4-213.333,38.4c-65.707,0-124.587-6.827-164.693-17.92 c-4.267,3.413-5.973,6.827-5.973,10.24c0,25.6,98.987,50.347,221.867,50.347s221.867-23.893,221.867-50.347 C502.467,167.533,479.427,156.44,442.733,148.76L442.733,148.76z"/>
    <path style="fill:#0096E6;" d="M280.6,238.36c-111.787,0-230.4-20.48-230.4-58.88c0-5.973,2.56-11.947,8.533-17.067L62.147,159 l4.267,0.853c42.667,11.093,101.547,17.92,162.987,17.92c104.96,0,185.173-18.773,208.213-35.84l3.413-2.56l4.267,0.853 c45.227,9.387,66.56,22.187,66.56,39.253C511,217.88,392.387,238.36,280.6,238.36z M67.267,178.627v0.853 c0,14.507,81.067,41.813,213.333,41.813s213.333-27.307,213.333-41.813c0-3.413-9.387-12.8-49.493-21.333 c-32.427,22.187-119.467,37.547-215.04,37.547C169.667,195.693,110.787,189.72,67.267,178.627z"/>
  </g>
  <path style="fill: rgb(61, 109, 235);" d="M 204.669 131.397 L 217.795 119.117 L 217.795 184.7 C 217.795 186.76 219.579 188.429 221.781 188.429 C 223.983 188.429 225.767 186.76 225.767 184.7 L 225.767 119.117 L 238.893 131.397 C 239.671 132.125 240.692 132.489 241.711 132.489 C 242.732 132.489 243.752 132.125 244.53 131.397 C 246.087 129.94 246.087 127.579 244.53 126.123 L 224.6 107.476 C 224.507 107.389 224.409 107.307 224.307 107.229 C 224.262 107.194 224.215 107.164 224.169 107.132 C 224.11 107.091 224.054 107.049 223.994 107.012 C 223.938 106.976 223.879 106.946 223.822 106.914 C 223.768 106.884 223.715 106.852 223.659 106.824 C 223.601 106.795 223.541 106.77 223.48 106.743 C 223.422 106.718 223.365 106.69 223.306 106.668 C 223.248 106.645 223.188 106.627 223.128 106.607 C 223.065 106.586 223.002 106.562 222.938 106.545 C 222.878 106.528 222.818 106.516 222.759 106.501 C 222.692 106.486 222.627 106.468 222.559 106.456 C 222.491 106.443 222.422 106.435 222.353 106.427 C 222.293 106.419 222.234 106.408 222.173 106.402 C 222.047 106.39 221.92 106.385 221.792 106.384 C 221.789 106.384 221.785 106.384 221.781 106.384 C 221.777 106.384 221.773 106.384 221.769 106.384 C 221.642 106.384 221.515 106.39 221.388 106.402 C 221.327 106.408 221.268 106.418 221.209 106.427 C 221.139 106.435 221.07 106.443 221.002 106.456 C 220.935 106.468 220.869 106.485 220.802 106.501 C 220.742 106.516 220.683 106.528 220.624 106.544 C 220.559 106.563 220.496 106.585 220.433 106.607 C 220.374 106.627 220.314 106.644 220.255 106.667 C 220.196 106.69 220.139 106.718 220.082 106.743 C 220.021 106.769 219.961 106.795 219.902 106.824 C 219.846 106.852 219.793 106.883 219.739 106.914 C 219.681 106.946 219.624 106.976 219.567 107.011 C 219.507 107.049 219.451 107.091 219.392 107.131 C 219.347 107.164 219.299 107.194 219.254 107.229 C 219.152 107.307 219.055 107.389 218.961 107.476 L 199.032 126.123 C 197.475 127.579 197.475 129.94 199.032 131.397 C 200.589 132.853 203.112 132.853 204.669 131.397 Z"/>
  <g transform="matrix(0.171277, 0, 0, 0.160246, 228.974915, -134.978424)" style=""/>
  <g transform="matrix(0.171277, 0, 0, 0.160246, 228.974915, -134.978424)" style=""/>
  <g transform="matrix(0.171277, 0, 0, 0.160246, 228.974915, -134.978424)" style=""/>
  <g transform="matrix(0.171277, 0, 0, 0.160246, 228.974915, -134.978424)" style=""/>
  <g transform="matrix(0.171277, 0, 0, 0.160246, 228.974915, -134.978424)" style=""/>
  <g transform="matrix(0.171277, 0, 0, 0.160246, 228.974915, -134.978424)" style=""/>
  <g transform="matrix(0.171277, 0, 0, 0.160246, 228.974915, -134.978424)" style=""/>
  <g transform="matrix(0.171277, 0, 0, 0.160246, 228.974915, -134.978424)" style=""/>
  <g transform="matrix(0.171277, 0, 0, 0.160246, 228.974915, -134.978424)" style=""/>
  <g transform="matrix(0.171277, 0, 0, 0.160246, 228.974915, -134.978424)" style=""/>
  <g transform="matrix(0.171277, 0, 0, 0.160246, 228.974915, -134.978424)" style=""/>
  <g transform="matrix(0.171277, 0, 0, 0.160246, 228.974915, -134.978424)" style=""/>
  <g transform="matrix(0.171277, 0, 0, 0.160246, 228.974915, -134.978424)" style=""/>
  <g transform="matrix(0.171277, 0, 0, 0.160246, 228.974915, -134.978424)" style=""/>
  <g transform="matrix(0.171277, 0, 0, 0.160246, 228.974915, -134.978424)" style=""/>
  <path style="fill: rgb(61, 109, 235);" d="M 94.14 212.284 L 107.266 200.004 L 107.266 265.587 C 107.266 267.647 109.05 269.316 111.252 269.316 C 113.454 269.316 115.238 267.647 115.238 265.587 L 115.238 200.004 L 128.364 212.284 C 129.142 213.012 130.163 213.376 131.182 213.376 C 132.203 213.376 133.223 213.012 134.001 212.284 C 135.558 210.827 135.558 208.466 134.001 207.01 L 114.071 188.363 C 113.978 188.276 113.88 188.194 113.778 188.116 C 113.733 188.081 113.686 188.051 113.64 188.019 C 113.581 187.978 113.525 187.936 113.465 187.899 C 113.409 187.863 113.35 187.833 113.293 187.801 C 113.239 187.771 113.186 187.739 113.13 187.711 C 113.072 187.682 113.012 187.657 112.951 187.63 C 112.893 187.605 112.836 187.577 112.777 187.555 C 112.719 187.532 112.659 187.514 112.599 187.494 C 112.536 187.473 112.473 187.449 112.409 187.432 C 112.349 187.415 112.289 187.403 112.23 187.388 C 112.163 187.373 112.098 187.355 112.03 187.343 C 111.962 187.33 111.893 187.322 111.824 187.314 C 111.764 187.306 111.705 187.295 111.644 187.289 C 111.518 187.277 111.391 187.272 111.263 187.271 C 111.26 187.271 111.256 187.271 111.252 187.271 C 111.248 187.271 111.244 187.271 111.24 187.271 C 111.113 187.271 110.986 187.277 110.859 187.289 C 110.798 187.295 110.739 187.305 110.68 187.314 C 110.61 187.322 110.541 187.33 110.473 187.343 C 110.406 187.355 110.34 187.372 110.273 187.388 C 110.213 187.403 110.154 187.415 110.095 187.431 C 110.03 187.45 109.967 187.472 109.904 187.494 C 109.845 187.514 109.785 187.531 109.726 187.554 C 109.667 187.577 109.61 187.605 109.553 187.63 C 109.492 187.656 109.432 187.682 109.373 187.711 C 109.317 187.739 109.264 187.77 109.21 187.801 C 109.152 187.833 109.095 187.863 109.038 187.898 C 108.978 187.936 108.922 187.978 108.863 188.018 C 108.818 188.051 108.77 188.081 108.725 188.116 C 108.623 188.194 108.526 188.276 108.432 188.363 L 88.503 207.01 C 86.946 208.466 86.946 210.827 88.503 212.284 C 90.06 213.74 92.583 213.74 94.14 212.284 Z"/>
  <path style="fill: rgb(61, 109, 235);" d="M 319.931 218.34 L 333.057 206.06 L 333.057 271.643 C 333.057 273.703 334.841 275.372 337.043 275.372 C 339.245 275.372 341.029 273.703 341.029 271.643 L 341.029 206.06 L 354.155 218.34 C 354.933 219.068 355.954 219.432 356.973 219.432 C 357.994 219.432 359.014 219.068 359.792 218.34 C 361.349 216.883 361.349 214.522 359.792 213.066 L 339.862 194.419 C 339.769 194.332 339.671 194.25 339.569 194.172 C 339.524 194.137 339.477 194.107 339.431 194.075 C 339.372 194.034 339.316 193.992 339.256 193.955 C 339.2 193.919 339.141 193.889 339.084 193.857 C 339.03 193.827 338.977 193.795 338.921 193.767 C 338.863 193.738 338.803 193.713 338.742 193.686 C 338.684 193.661 338.627 193.633 338.568 193.611 C 338.51 193.588 338.45 193.57 338.39 193.55 C 338.327 193.529 338.264 193.505 338.2 193.488 C 338.14 193.471 338.08 193.459 338.021 193.444 C 337.954 193.429 337.889 193.411 337.821 193.399 C 337.753 193.386 337.684 193.378 337.615 193.37 C 337.555 193.362 337.496 193.351 337.435 193.345 C 337.309 193.333 337.182 193.328 337.054 193.327 C 337.051 193.327 337.047 193.327 337.043 193.327 C 337.039 193.327 337.035 193.327 337.031 193.327 C 336.904 193.327 336.777 193.333 336.65 193.345 C 336.589 193.351 336.53 193.361 336.471 193.37 C 336.401 193.378 336.332 193.386 336.264 193.399 C 336.197 193.411 336.131 193.428 336.064 193.444 C 336.004 193.459 335.945 193.471 335.886 193.487 C 335.821 193.506 335.758 193.528 335.695 193.55 C 335.636 193.57 335.576 193.587 335.517 193.61 C 335.458 193.633 335.401 193.661 335.344 193.686 C 335.283 193.712 335.223 193.738 335.164 193.767 C 335.108 193.795 335.055 193.826 335.001 193.857 C 334.943 193.889 334.886 193.919 334.829 193.954 C 334.769 193.992 334.713 194.034 334.654 194.074 C 334.609 194.107 334.561 194.137 334.516 194.172 C 334.414 194.25 334.317 194.332 334.223 194.419 L 314.294 213.066 C 312.737 214.522 312.737 216.883 314.294 218.34 C 315.851 219.796 318.374 219.796 319.931 218.34 Z"/>
</svg>